<?xml version="1.0" encoding="UTF-8" standalone="no"?>
<!DOCTYPE svg PUBLIC "-//W3C//DTD SVG 1.1//EN"
 "http://www.w3.org/Graphics/SVG/1.1/DTD/svg11.dtd">
<!-- Generated by graphviz version 2.38.0 (20140413.2041)
 -->
<!-- Title: %3 Pages: 1 -->
<svg width="1406pt" height="332pt"
 viewBox="0.00 0.00 1406.19 332.00" xmlns="http://www.w3.org/2000/svg" xmlns:xlink="http://www.w3.org/1999/xlink">
<g id="graph0" class="graph" transform="scale(1 1) rotate(0) translate(4 328)">
<title>%3</title>
<polygon fill="white" stroke="none" points="-4,4 -4,-328 1402.19,-328 1402.19,4 -4,4"/>
<!-- overload -->
<g id="node1" class="node"><title>overload</title>
<ellipse fill="none" stroke="black" cx="698.145" cy="-162" rx="50.8918" ry="18"/>
<text text-anchor="middle" x="698.145" y="-158.3" font-family="Times,serif" font-size="14.00">overload</text>
</g>
<!-- preferencesdialog -->
<g id="node2" class="node"><title>preferencesdialog</title>
<ellipse fill="none" stroke="black" cx="399.145" cy="-234" rx="94.7833" ry="18"/>
<text text-anchor="middle" x="399.145" y="-230.3" font-family="Times,serif" font-size="14.00">preferencesdialog</text>
</g>
<!-- preferencesdialog&#45;&gt;overload -->
<g id="edge1" class="edge"><title>preferencesdialog&#45;&gt;overload</title>
<path fill="none" stroke="black" d="M461.276,-220.252C509.652,-210.078 578.391,-195.077 638.145,-180 642.16,-178.987 646.315,-177.897 650.478,-176.776"/>
<polygon fill="black" stroke="black" points="651.427,-180.145 660.145,-174.125 649.576,-173.394 651.427,-180.145"/>
</g>
<!-- language -->
<g id="node20" class="node"><title>language</title>
<ellipse fill="none" stroke="black" cx="576.145" cy="-162" rx="53.0913" ry="18"/>
<text text-anchor="middle" x="576.145" y="-158.3" font-family="Times,serif" font-size="14.00">language</text>
</g>
<!-- preferencesdialog&#45;&gt;language -->
<g id="edge2" class="edge"><title>preferencesdialog&#45;&gt;language</title>
<path fill="none" stroke="black" d="M438.427,-217.465C466.61,-206.319 504.557,-191.312 533.481,-179.873"/>
<polygon fill="black" stroke="black" points="534.905,-183.073 542.917,-176.141 532.331,-176.564 534.905,-183.073"/>
</g>
<!-- reporttree -->
<g id="node3" class="node"><title>reporttree</title>
<ellipse fill="none" stroke="black" cx="59.1448" cy="-162" rx="59.2899" ry="18"/>
<text text-anchor="middle" x="59.1448" y="-158.3" font-family="Times,serif" font-size="14.00">reporttree</text>
</g>
<!-- STL -->
<g id="node13" class="node"><title>STL</title>
<ellipse fill="none" stroke="black" cx="635.145" cy="-18" rx="28.6953" ry="18"/>
<text text-anchor="middle" x="635.145" y="-14.3" font-family="Times,serif" font-size="14.00">STL</text>
</g>
<!-- reporttree&#45;&gt;STL -->
<g id="edge4" class="edge"><title>reporttree&#45;&gt;STL</title>
<path fill="none" stroke="black" d="M92.5078,-146.934C139.88,-127.468 229.72,-92.4149 309.145,-72 363.135,-58.1226 523.172,-34.7513 597.021,-24.3132"/>
<polygon fill="black" stroke="black" points="597.855,-27.7305 607.269,-22.8697 596.878,-20.7989 597.855,-27.7305"/>
</g>
<!-- guiassert -->
<g id="node18" class="node"><title>guiassert</title>
<ellipse fill="none" stroke="black" cx="473.145" cy="-90" rx="53.8905" ry="18"/>
<text text-anchor="middle" x="473.145" y="-86.3" font-family="Times,serif" font-size="14.00">guiassert</text>
</g>
<!-- reporttree&#45;&gt;guiassert -->
<g id="edge3" class="edge"><title>reporttree&#45;&gt;guiassert</title>
<path fill="none" stroke="black" d="M102.175,-149.601C110.432,-147.596 119.032,-145.632 127.145,-144 226.739,-123.968 343.801,-107.498 413.05,-98.48"/>
<polygon fill="black" stroke="black" points="413.859,-101.905 423.328,-97.1506 412.961,-94.9624 413.859,-101.905"/>
</g>
<!-- core -->
<g id="node22" class="node"><title>core</title>
<ellipse fill="none" stroke="black" cx="576.145" cy="-90" rx="31.3957" ry="18"/>
<text text-anchor="middle" x="576.145" y="-86.3" font-family="Times,serif" font-size="14.00">core</text>
</g>
<!-- reporttree&#45;&gt;core -->
<g id="edge5" class="edge"><title>reporttree&#45;&gt;core</title>
<path fill="none" stroke="black" d="M101.369,-149.352C109.853,-147.321 118.744,-145.411 127.145,-144 307.105,-113.778 359.106,-152.232 536.145,-108 538.492,-107.414 540.879,-106.707 543.258,-105.921"/>
<polygon fill="black" stroke="black" points="544.732,-109.106 552.879,-102.333 542.287,-102.547 544.732,-109.106"/>
</g>
<!-- importancetablemodel -->
<g id="node4" class="node"><title>importancetablemodel</title>
<ellipse fill="none" stroke="black" cx="979.145" cy="-162" rx="115.88" ry="18"/>
<text text-anchor="middle" x="979.145" y="-158.3" font-family="Times,serif" font-size="14.00">importancetablemodel</text>
</g>
<!-- importancetablemodel&#45;&gt;STL -->
<g id="edge7" class="edge"><title>importancetablemodel&#45;&gt;STL</title>
<path fill="none" stroke="black" d="M900.282,-148.772C863.362,-140.794 819.777,-128.019 784.145,-108 763.862,-96.6047 765.32,-85.173 746.145,-72 721.81,-55.2832 691.387,-41.1648 668.548,-31.7137"/>
<polygon fill="black" stroke="black" points="669.846,-28.4635 659.264,-27.955 667.219,-34.9519 669.846,-28.4635"/>
</g>
<!-- importancetablemodel&#45;&gt;guiassert -->
<g id="edge6" class="edge"><title>importancetablemodel&#45;&gt;guiassert</title>
<path fill="none" stroke="black" d="M896.14,-149.446C882.129,-147.572 867.728,-145.692 854.145,-144 713,-126.415 675.871,-134.604 536.145,-108 531.519,-107.119 526.735,-106.077 521.966,-104.947"/>
<polygon fill="black" stroke="black" points="522.801,-101.549 512.252,-102.533 521.113,-108.342 522.801,-101.549"/>
</g>
<!-- importancetablemodel&#45;&gt;core -->
<g id="edge9" class="edge"><title>importancetablemodel&#45;&gt;core</title>
<path fill="none" stroke="black" d="M898.466,-149.058C832.576,-139.014 737.122,-123.797 654.145,-108 641.274,-105.55 627.273,-102.591 614.732,-99.8335"/>
<polygon fill="black" stroke="black" points="615.118,-96.334 604.597,-97.5801 613.599,-103.167 615.118,-96.334"/>
</g>
<!-- align -->
<g id="node23" class="node"><title>align</title>
<ellipse fill="none" stroke="black" cx="979.145" cy="-90" rx="33.5952" ry="18"/>
<text text-anchor="middle" x="979.145" y="-86.3" font-family="Times,serif" font-size="14.00">align</text>
</g>
<!-- importancetablemodel&#45;&gt;align -->
<g id="edge8" class="edge"><title>importancetablemodel&#45;&gt;align</title>
<path fill="none" stroke="black" d="M979.145,-143.697C979.145,-135.983 979.145,-126.712 979.145,-118.112"/>
<polygon fill="black" stroke="black" points="982.645,-118.104 979.145,-108.104 975.645,-118.104 982.645,-118.104"/>
</g>
<!-- settingsdialog -->
<g id="node5" class="node"><title>settingsdialog</title>
<ellipse fill="none" stroke="black" cx="213.145" cy="-162" rx="76.8869" ry="18"/>
<text text-anchor="middle" x="213.145" y="-158.3" font-family="Times,serif" font-size="14.00">settingsdialog</text>
</g>
<!-- settingsdialog&#45;&gt;STL -->
<g id="edge11" class="edge"><title>settingsdialog&#45;&gt;STL</title>
<path fill="none" stroke="black" d="M240.156,-145.141C274.771,-125.429 337.133,-91.9579 394.145,-72 464.023,-47.5381 549.385,-31.9499 597.48,-24.4026"/>
<polygon fill="black" stroke="black" points="598.092,-27.8497 607.445,-22.8707 597.029,-20.9309 598.092,-27.8497"/>
</g>
<!-- settingsdialog&#45;&gt;guiassert -->
<g id="edge10" class="edge"><title>settingsdialog&#45;&gt;guiassert</title>
<path fill="none" stroke="black" d="M261.439,-147.998C307.273,-135.658 375.893,-117.183 422.49,-104.638"/>
<polygon fill="black" stroke="black" points="423.627,-107.956 432.373,-101.977 421.807,-101.197 423.627,-107.956"/>
</g>
<!-- settingsdialog&#45;&gt;core -->
<g id="edge12" class="edge"><title>settingsdialog&#45;&gt;core</title>
<path fill="none" stroke="black" d="M268.855,-149.466C278.603,-147.56 288.658,-145.665 298.145,-144 403.515,-125.504 433.213,-137.153 536.145,-108 538.472,-107.341 540.845,-106.58 543.213,-105.753"/>
<polygon fill="black" stroke="black" points="544.725,-108.923 552.811,-102.077 542.221,-102.386 544.725,-108.923"/>
</g>
<!-- modeltree -->
<g id="node6" class="node"><title>modeltree</title>
<ellipse fill="none" stroke="black" cx="686.145" cy="-234" rx="57.6901" ry="18"/>
<text text-anchor="middle" x="686.145" y="-230.3" font-family="Times,serif" font-size="14.00">modeltree</text>
</g>
<!-- modeltree&#45;&gt;overload -->
<g id="edge14" class="edge"><title>modeltree&#45;&gt;overload</title>
<path fill="none" stroke="black" d="M689.111,-215.697C690.433,-207.983 692.023,-198.712 693.497,-190.112"/>
<polygon fill="black" stroke="black" points="696.973,-190.552 695.213,-180.104 690.073,-189.369 696.973,-190.552"/>
</g>
<!-- model -->
<g id="node8" class="node"><title>model</title>
<ellipse fill="none" stroke="black" cx="806.145" cy="-162" rx="38.9931" ry="18"/>
<text text-anchor="middle" x="806.145" y="-158.3" font-family="Times,serif" font-size="14.00">model</text>
</g>
<!-- modeltree&#45;&gt;model -->
<g id="edge13" class="edge"><title>modeltree&#45;&gt;model</title>
<path fill="none" stroke="black" d="M712.183,-217.811C730.392,-207.189 754.824,-192.937 774.21,-181.628"/>
<polygon fill="black" stroke="black" points="776.122,-184.565 782.996,-176.503 772.595,-178.519 776.122,-184.565"/>
</g>
<!-- Boost -->
<g id="node7" class="node"><title>Boost</title>
<ellipse fill="none" stroke="black" cx="700.145" cy="-90" rx="37.0935" ry="18"/>
<text text-anchor="middle" x="700.145" y="-86.3" font-family="Times,serif" font-size="14.00">Boost</text>
</g>
<!-- model&#45;&gt;Boost -->
<g id="edge16" class="edge"><title>model&#45;&gt;Boost</title>
<path fill="none" stroke="black" d="M784.694,-146.834C768.93,-136.424 747.312,-122.148 729.882,-110.638"/>
<polygon fill="black" stroke="black" points="731.475,-107.496 721.202,-104.906 727.618,-113.337 731.475,-107.496"/>
</g>
<!-- model&#45;&gt;guiassert -->
<g id="edge15" class="edge"><title>model&#45;&gt;guiassert</title>
<path fill="none" stroke="black" d="M777.212,-149.812C770.986,-147.67 764.397,-145.6 758.145,-144 661.311,-119.215 633.859,-129.048 536.145,-108 531.727,-107.048 527.156,-105.981 522.588,-104.856"/>
<polygon fill="black" stroke="black" points="523.204,-101.401 512.649,-102.326 521.477,-108.185 523.204,-101.401"/>
</g>
<!-- command -->
<g id="node21" class="node"><title>command</title>
<ellipse fill="none" stroke="black" cx="849.145" cy="-90" rx="55.7903" ry="18"/>
<text text-anchor="middle" x="849.145" y="-86.3" font-family="Times,serif" font-size="14.00">command</text>
</g>
<!-- model&#45;&gt;command -->
<g id="edge17" class="edge"><title>model&#45;&gt;command</title>
<path fill="none" stroke="black" d="M816.335,-144.411C821.454,-136.077 827.769,-125.797 833.488,-116.488"/>
<polygon fill="black" stroke="black" points="836.477,-118.309 838.729,-107.956 830.512,-114.645 836.477,-118.309"/>
</g>
<!-- model&#45;&gt;core -->
<g id="edge18" class="edge"><title>model&#45;&gt;core</title>
<path fill="none" stroke="black" d="M776.533,-150.215C770.471,-148.091 764.119,-145.926 758.145,-144 708.471,-127.985 650.496,-111.473 613.568,-101.225"/>
<polygon fill="black" stroke="black" points="614.306,-97.7979 603.735,-98.5065 612.441,-104.545 614.306,-97.7979"/>
</g>
<!-- mainwindow -->
<g id="node9" class="node"><title>mainwindow</title>
<ellipse fill="none" stroke="black" cx="686.145" cy="-306" rx="69.5877" ry="18"/>
<text text-anchor="middle" x="686.145" y="-302.3" font-family="Times,serif" font-size="14.00">mainwindow</text>
</g>
<!-- mainwindow&#45;&gt;preferencesdialog -->
<g id="edge19" class="edge"><title>mainwindow&#45;&gt;preferencesdialog</title>
<path fill="none" stroke="black" d="M637.459,-293.125C589.982,-281.546 517.442,-263.853 464.865,-251.029"/>
<polygon fill="black" stroke="black" points="465.505,-247.583 454.96,-248.613 463.846,-254.383 465.505,-247.583"/>
</g>
<!-- mainwindow&#45;&gt;reporttree -->
<g id="edge20" class="edge"><title>mainwindow&#45;&gt;reporttree</title>
<path fill="none" stroke="black" d="M617.027,-303.836C528.466,-300.75 371,-289.854 242.145,-252 187.381,-235.912 128.853,-204.682 93.124,-183.831"/>
<polygon fill="black" stroke="black" points="94.501,-180.579 84.1107,-178.508 90.9413,-186.607 94.501,-180.579"/>
</g>
<!-- mainwindow&#45;&gt;importancetablemodel -->
<g id="edge24" class="edge"><title>mainwindow&#45;&gt;importancetablemodel</title>
<path fill="none" stroke="black" d="M754.408,-302.328C879.355,-296.732 1134.52,-281.761 1161.14,-252 1195.43,-213.681 1131.21,-190.104 1069.81,-176.928"/>
<polygon fill="black" stroke="black" points="1070.5,-173.496 1060,-174.902 1069.09,-180.351 1070.5,-173.496"/>
</g>
<!-- mainwindow&#45;&gt;settingsdialog -->
<g id="edge28" class="edge"><title>mainwindow&#45;&gt;settingsdialog</title>
<path fill="none" stroke="black" d="M617.956,-302.131C518.587,-296.931 339.766,-283.424 284.145,-252 258.476,-237.498 238.616,-209.682 226.51,-188.99"/>
<polygon fill="black" stroke="black" points="229.445,-187.067 221.5,-180.057 223.339,-190.491 229.445,-187.067"/>
</g>
<!-- mainwindow&#45;&gt;modeltree -->
<g id="edge22" class="edge"><title>mainwindow&#45;&gt;modeltree</title>
<path fill="none" stroke="black" d="M686.145,-287.697C686.145,-279.983 686.145,-270.712 686.145,-262.112"/>
<polygon fill="black" stroke="black" points="689.645,-262.104 686.145,-252.104 682.645,-262.104 689.645,-262.104"/>
</g>
<!-- printable -->
<g id="node12" class="node"><title>printable</title>
<ellipse fill="none" stroke="black" cx="1212.14" cy="-90" rx="53.0913" ry="18"/>
<text text-anchor="middle" x="1212.14" y="-86.3" font-family="Times,serif" font-size="14.00">printable</text>
</g>
<!-- mainwindow&#45;&gt;printable -->
<g id="edge27" class="edge"><title>mainwindow&#45;&gt;printable</title>
<path fill="none" stroke="black" d="M754.099,-302.124C882.186,-296.07 1149.31,-280.195 1180.14,-252 1217.12,-218.189 1218.4,-154.883 1215.58,-118.541"/>
<polygon fill="black" stroke="black" points="1219.02,-117.819 1214.6,-108.191 1212.05,-118.475 1219.02,-117.819"/>
</g>
<!-- eventdialog -->
<g id="node14" class="node"><title>eventdialog</title>
<ellipse fill="none" stroke="black" cx="1087.14" cy="-234" rx="64.9885" ry="18"/>
<text text-anchor="middle" x="1087.14" y="-230.3" font-family="Times,serif" font-size="14.00">eventdialog</text>
</g>
<!-- mainwindow&#45;&gt;eventdialog -->
<g id="edge26" class="edge"><title>mainwindow&#45;&gt;eventdialog</title>
<path fill="none" stroke="black" d="M745.424,-296.578C811.094,-286.973 920.017,-270.224 1013.14,-252 1018.48,-250.956 1024.02,-249.807 1029.55,-248.614"/>
<polygon fill="black" stroke="black" points="1030.46,-251.998 1039.47,-246.432 1028.96,-245.162 1030.46,-251.998"/>
</g>
<!-- diagram -->
<g id="node15" class="node"><title>diagram</title>
<ellipse fill="none" stroke="black" cx="561.145" cy="-234" rx="49.2915" ry="18"/>
<text text-anchor="middle" x="561.145" y="-230.3" font-family="Times,serif" font-size="14.00">diagram</text>
</g>
<!-- mainwindow&#45;&gt;diagram -->
<g id="edge23" class="edge"><title>mainwindow&#45;&gt;diagram</title>
<path fill="none" stroke="black" d="M658.403,-289.465C640.024,-279.172 615.765,-265.587 596.073,-254.56"/>
<polygon fill="black" stroke="black" points="597.537,-251.368 587.102,-249.536 594.117,-257.476 597.537,-251.368"/>
</g>
<!-- producttablemodel -->
<g id="node16" class="node"><title>producttablemodel</title>
<ellipse fill="none" stroke="black" cx="406.145" cy="-162" rx="98.5829" ry="18"/>
<text text-anchor="middle" x="406.145" y="-158.3" font-family="Times,serif" font-size="14.00">producttablemodel</text>
</g>
<!-- mainwindow&#45;&gt;producttablemodel -->
<g id="edge29" class="edge"><title>mainwindow&#45;&gt;producttablemodel</title>
<path fill="none" stroke="black" d="M619.557,-300.69C513.541,-293.143 316.13,-276.021 295.145,-252 284.618,-239.95 286.61,-229.533 295.145,-216 305.285,-199.921 321.794,-188.616 339.017,-180.709"/>
<polygon fill="black" stroke="black" points="340.769,-183.769 348.623,-176.657 338.048,-177.319 340.769,-183.769"/>
</g>
<!-- elementcontainermodel -->
<g id="node19" class="node"><title>elementcontainermodel</title>
<ellipse fill="none" stroke="black" cx="883.145" cy="-234" rx="120.779" ry="18"/>
<text text-anchor="middle" x="883.145" y="-230.3" font-family="Times,serif" font-size="14.00">elementcontainermodel</text>
</g>
<!-- mainwindow&#45;&gt;elementcontainermodel -->
<g id="edge21" class="edge"><title>mainwindow&#45;&gt;elementcontainermodel</title>
<path fill="none" stroke="black" d="M725.537,-291.003C755.276,-280.435 796.423,-265.815 829.216,-254.162"/>
<polygon fill="black" stroke="black" points="830.414,-257.451 838.664,-250.805 828.07,-250.855 830.414,-257.451"/>
</g>
<!-- zoomableview -->
<g id="node24" class="node"><title>zoomableview</title>
<ellipse fill="none" stroke="black" cx="1322.14" cy="-234" rx="76.0865" ry="18"/>
<text text-anchor="middle" x="1322.14" y="-230.3" font-family="Times,serif" font-size="14.00">zoomableview</text>
</g>
<!-- mainwindow&#45;&gt;zoomableview -->
<g id="edge25" class="edge"><title>mainwindow&#45;&gt;zoomableview</title>
<path fill="none" stroke="black" d="M752.773,-300.473C855.857,-293.033 1060.08,-276.551 1232.14,-252 1240.09,-250.866 1248.4,-249.519 1256.63,-248.086"/>
<polygon fill="black" stroke="black" points="1257.36,-251.511 1266.58,-246.304 1256.12,-244.62 1257.36,-251.511"/>
</g>
<!-- ext -->
<g id="node10" class="node"><title>ext</title>
<ellipse fill="none" stroke="black" cx="473.145" cy="-18" rx="27" ry="18"/>
<text text-anchor="middle" x="473.145" y="-14.3" font-family="Times,serif" font-size="14.00">ext</text>
</g>
<!-- Qt5 -->
<g id="node11" class="node"><title>Qt5</title>
<ellipse fill="none" stroke="black" cx="1031.14" cy="-18" rx="27.8951" ry="18"/>
<text text-anchor="middle" x="1031.14" y="-14.3" font-family="Times,serif" font-size="14.00">Qt5</text>
</g>
<!-- printable&#45;&gt;Qt5 -->
<g id="edge30" class="edge"><title>printable&#45;&gt;Qt5</title>
<path fill="none" stroke="black" d="M1178.52,-75.9976C1145.82,-63.3491 1096.45,-44.255 1064,-31.7078"/>
<polygon fill="black" stroke="black" points="1065.1,-28.3811 1054.52,-28.0384 1062.58,-34.9099 1065.1,-28.3811"/>
</g>
<!-- eventdialog&#45;&gt;overload -->
<g id="edge31" class="edge"><title>eventdialog&#45;&gt;overload</title>
<path fill="none" stroke="black" d="M1039.9,-221.512C1031.04,-219.538 1021.83,-217.607 1013.14,-216 900.599,-195.168 870.131,-203.655 758.145,-180 753.974,-179.119 749.666,-178.107 745.363,-177.025"/>
<polygon fill="black" stroke="black" points="745.958,-173.562 735.397,-174.401 744.177,-180.332 745.958,-173.562"/>
</g>
<!-- eventdialog&#45;&gt;model -->
<g id="edge32" class="edge"><title>eventdialog&#45;&gt;model</title>
<path fill="none" stroke="black" d="M1038.59,-221.822C1030.11,-219.876 1021.37,-217.876 1013.14,-216 942.503,-199.889 923.748,-200.129 854.145,-180 851.183,-179.143 848.137,-178.205 845.086,-177.222"/>
<polygon fill="black" stroke="black" points="846.007,-173.84 835.413,-173.982 843.783,-180.477 846.007,-173.84"/>
</g>
<!-- validator -->
<g id="node17" class="node"><title>validator</title>
<ellipse fill="none" stroke="black" cx="1083.14" cy="-90" rx="51.9908" ry="18"/>
<text text-anchor="middle" x="1083.14" y="-86.3" font-family="Times,serif" font-size="14.00">validator</text>
</g>
<!-- eventdialog&#45;&gt;validator -->
<g id="edge33" class="edge"><title>eventdialog&#45;&gt;validator</title>
<path fill="none" stroke="black" d="M1108.7,-216.885C1119.44,-207.468 1131.35,-194.578 1137.14,-180 1143.05,-165.13 1143.34,-158.753 1137.14,-144 1132.14,-132.077 1123,-121.487 1113.65,-112.967"/>
<polygon fill="black" stroke="black" points="1115.71,-110.126 1105.82,-106.314 1111.17,-115.459 1115.71,-110.126"/>
</g>
<!-- diagram&#45;&gt;overload -->
<g id="edge34" class="edge"><title>diagram&#45;&gt;overload</title>
<path fill="none" stroke="black" d="M588.539,-219.003C609.403,-208.342 638.34,-193.557 661.242,-181.855"/>
<polygon fill="black" stroke="black" points="663.015,-184.88 670.328,-177.213 659.83,-178.646 663.015,-184.88"/>
</g>
<!-- diagram&#45;&gt;model -->
<g id="edge35" class="edge"><title>diagram&#45;&gt;model</title>
<path fill="none" stroke="black" d="M598.224,-221.942C605.165,-219.926 612.368,-217.87 619.145,-216 680.661,-199.023 697.121,-198.67 758.145,-180 761.052,-179.111 764.044,-178.153 767.047,-177.162"/>
<polygon fill="black" stroke="black" points="768.234,-180.456 776.577,-173.925 765.982,-173.828 768.234,-180.456"/>
</g>
<!-- producttablemodel&#45;&gt;STL -->
<g id="edge37" class="edge"><title>producttablemodel&#45;&gt;STL</title>
<path fill="none" stroke="black" d="M401.359,-143.772C397.021,-124.082 393.561,-92.0043 410.145,-72 422.13,-57.5431 536.867,-35.8943 597.697,-25.2983"/>
<polygon fill="black" stroke="black" points="598.424,-28.7246 607.682,-23.5738 597.233,-21.8267 598.424,-28.7246"/>
</g>
<!-- producttablemodel&#45;&gt;guiassert -->
<g id="edge36" class="edge"><title>producttablemodel&#45;&gt;guiassert</title>
<path fill="none" stroke="black" d="M422.364,-144.055C430.798,-135.243 441.245,-124.328 450.466,-114.694"/>
<polygon fill="black" stroke="black" points="453.15,-116.951 457.537,-107.307 448.094,-112.111 453.15,-116.951"/>
</g>
<!-- producttablemodel&#45;&gt;core -->
<g id="edge39" class="edge"><title>producttablemodel&#45;&gt;core</title>
<path fill="none" stroke="black" d="M444.887,-145.379C470.767,-134.902 505.543,-120.74 536.145,-108 538.182,-107.152 540.276,-106.275 542.388,-105.388"/>
<polygon fill="black" stroke="black" points="543.779,-108.6 551.63,-101.486 541.056,-102.151 543.779,-108.6"/>
</g>
<!-- producttablemodel&#45;&gt;align -->
<g id="edge38" class="edge"><title>producttablemodel&#45;&gt;align</title>
<path fill="none" stroke="black" d="M476.345,-149.258C488.911,-147.354 501.9,-145.513 514.145,-144 691.294,-122.11 738.306,-138.688 914.145,-108 922.734,-106.501 931.849,-104.428 940.451,-102.244"/>
<polygon fill="black" stroke="black" points="941.475,-105.594 950.25,-99.6568 939.688,-98.8255 941.475,-105.594"/>
</g>
<!-- validator&#45;&gt;Qt5 -->
<g id="edge40" class="edge"><title>validator&#45;&gt;Qt5</title>
<path fill="none" stroke="black" d="M1070.82,-72.411C1064.22,-63.5304 1055.99,-52.4391 1048.73,-42.6684"/>
<polygon fill="black" stroke="black" points="1051.44,-40.4511 1042.67,-34.5108 1045.82,-44.6254 1051.44,-40.4511"/>
</g>
<!-- validator&#45;&gt;STL -->
<g id="edge41" class="edge"><title>validator&#45;&gt;STL</title>
<path fill="none" stroke="black" d="M1045.27,-77.5865C1037.66,-75.536 1029.68,-73.5587 1022.14,-72 895.812,-45.8713 743.533,-29.3085 673.631,-22.5231"/>
<polygon fill="black" stroke="black" points="673.82,-19.0252 663.532,-21.5554 673.152,-25.9933 673.82,-19.0252"/>
</g>
<!-- guiassert&#45;&gt;ext -->
<g id="edge43" class="edge"><title>guiassert&#45;&gt;ext</title>
<path fill="none" stroke="black" d="M473.145,-71.6966C473.145,-63.9827 473.145,-54.7125 473.145,-46.1124"/>
<polygon fill="black" stroke="black" points="476.645,-46.1043 473.145,-36.1043 469.645,-46.1044 476.645,-46.1043"/>
</g>
<!-- guiassert&#45;&gt;Qt5 -->
<g id="edge42" class="edge"><title>guiassert&#45;&gt;Qt5</title>
<path fill="none" stroke="black" d="M512.245,-77.4296C520.108,-75.392 528.35,-73.4596 536.145,-72 704.987,-40.383 910.02,-25.9133 993.281,-21.0227"/>
<polygon fill="black" stroke="black" points="993.502,-24.5159 1003.28,-20.4472 993.1,-17.5275 993.502,-24.5159"/>
</g>
<!-- elementcontainermodel&#45;&gt;overload -->
<g id="edge44" class="edge"><title>elementcontainermodel&#45;&gt;overload</title>
<path fill="none" stroke="black" d="M841.165,-217.116C811.248,-205.796 771.161,-190.628 741.039,-179.23"/>
<polygon fill="black" stroke="black" points="742.227,-175.938 731.635,-175.672 739.749,-182.485 742.227,-175.938"/>
</g>
<!-- elementcontainermodel&#45;&gt;model -->
<g id="edge45" class="edge"><title>elementcontainermodel&#45;&gt;model</title>
<path fill="none" stroke="black" d="M864.505,-216.055C854.334,-206.808 841.615,-195.246 830.65,-185.277"/>
<polygon fill="black" stroke="black" points="832.791,-182.493 823.037,-178.356 828.082,-187.673 832.791,-182.493"/>
</g>
<!-- elementcontainermodel&#45;&gt;align -->
<g id="edge46" class="edge"><title>elementcontainermodel&#45;&gt;align</title>
<path fill="none" stroke="black" d="M975.623,-222.367C1028.66,-214.155 1087.87,-200.642 1104.14,-180 1114.05,-167.436 1112.98,-157.34 1104.14,-144 1102.8,-141.97 1051.12,-120.481 1014.64,-105.498"/>
<polygon fill="black" stroke="black" points="1015.85,-102.212 1005.27,-101.655 1013.19,-108.688 1015.85,-102.212"/>
</g>
<!-- language&#45;&gt;Boost -->
<g id="edge49" class="edge"><title>language&#45;&gt;Boost</title>
<path fill="none" stroke="black" d="M602.442,-146.155C621.553,-135.366 647.531,-120.701 667.895,-109.205"/>
<polygon fill="black" stroke="black" points="669.825,-112.135 676.812,-104.172 666.383,-106.04 669.825,-112.135"/>
</g>
<!-- language&#45;&gt;STL -->
<g id="edge50" class="edge"><title>language&#45;&gt;STL</title>
<path fill="none" stroke="black" d="M591.547,-144.567C600.015,-134.672 610.015,-121.422 616.145,-108 625.143,-88.2974 629.953,-64.1733 632.479,-46.0138"/>
<polygon fill="black" stroke="black" points="635.952,-46.4459 633.718,-36.0895 629.006,-45.5792 635.952,-46.4459"/>
</g>
<!-- language&#45;&gt;guiassert -->
<g id="edge47" class="edge"><title>language&#45;&gt;guiassert</title>
<path fill="none" stroke="black" d="M553.541,-145.638C539.151,-135.859 520.311,-123.054 504.486,-112.3"/>
<polygon fill="black" stroke="black" points="506.29,-109.294 496.052,-106.568 502.355,-115.084 506.29,-109.294"/>
</g>
<!-- language&#45;&gt;core -->
<g id="edge48" class="edge"><title>language&#45;&gt;core</title>
<path fill="none" stroke="black" d="M576.145,-143.697C576.145,-135.983 576.145,-126.712 576.145,-118.112"/>
<polygon fill="black" stroke="black" points="579.645,-118.104 576.145,-108.104 572.645,-118.104 579.645,-118.104"/>
</g>
<!-- command&#45;&gt;Qt5 -->
<g id="edge51" class="edge"><title>command&#45;&gt;Qt5</title>
<path fill="none" stroke="black" d="M883.806,-75.6688C916.706,-63.0148 965.805,-44.1307 998.146,-31.692"/>
<polygon fill="black" stroke="black" points="999.531,-34.9092 1007.61,-28.0527 997.018,-28.3758 999.531,-34.9092"/>
</g>
<!-- command&#45;&gt;STL -->
<g id="edge52" class="edge"><title>command&#45;&gt;STL</title>
<path fill="none" stroke="black" d="M811.378,-76.6465C771.285,-63.5318 708.463,-42.9826 669.655,-30.2884"/>
<polygon fill="black" stroke="black" points="670.452,-26.8668 659.86,-27.0844 668.276,-33.5199 670.452,-26.8668"/>
</g>
<!-- align&#45;&gt;Qt5 -->
<g id="edge53" class="edge"><title>align&#45;&gt;Qt5</title>
<path fill="none" stroke="black" d="M990.944,-73.1159C997.526,-64.2555 1005.86,-53.0373 1013.23,-43.1152"/>
<polygon fill="black" stroke="black" points="1016.24,-44.9358 1019.39,-34.8212 1010.62,-40.7615 1016.24,-44.9358"/>
</g>
<!-- zoomableview&#45;&gt;Qt5 -->
<g id="edge54" class="edge"><title>zoomableview&#45;&gt;Qt5</title>
<path fill="none" stroke="black" d="M1322.36,-215.76C1321.77,-182.725 1315.52,-110.384 1274.14,-72 1244.73,-44.7127 1129.96,-29.1128 1069.27,-22.6117"/>
<polygon fill="black" stroke="black" points="1069.26,-19.092 1058.95,-21.5386 1068.53,-26.0544 1069.26,-19.092"/>
</g>
</g>
</svg>
