<?xml version="1.0" encoding="UTF-8" standalone="no"?>
<!DOCTYPE svg PUBLIC "-//W3C//DTD SVG 1.1//EN"
 "http://www.w3.org/Graphics/SVG/1.1/DTD/svg11.dtd">
<!-- Generated by graphviz version 2.38.0 (20140413.2041)
 -->
<!-- Title: scram::core::Settings::probability_analysis Pages: 1 -->
<svg width="459pt" height="116pt"
 viewBox="0.00 0.00 459.00 116.00" xmlns="http://www.w3.org/2000/svg" xmlns:xlink="http://www.w3.org/1999/xlink">
<g id="graph0" class="graph" transform="scale(1 1) rotate(0) translate(4 112)">
<title>scram::core::Settings::probability_analysis</title>
<polygon fill="white" stroke="none" points="-4,4 -4,-112 455,-112 455,4 -4,4"/>
<!-- Node1 -->
<g id="node1" class="node"><title>Node1</title>
<polygon fill="#bfbfbf" stroke="black" points="0,-39 0,-69 119,-69 119,-39 0,-39"/>
<text text-anchor="start" x="8" y="-57" font-family="Helvetica,sans-Serif" font-size="10.00">scram::core::Settings</text>
<text text-anchor="middle" x="59.5" y="-46" font-family="Helvetica,sans-Serif" font-size="10.00">::probability_analysis</text>
</g>
<!-- Node2 -->
<g id="node2" class="node"><title>Node2</title>
<g id="a_node2"><a xlink:href="classscram_1_1Config.xhtml#ab0d7940fbb627fab9867821e133eab5d" target="_top" xlink:title="A constructor with configurations for analysis. ">
<polygon fill="white" stroke="black" points="160.5,-88.5 160.5,-107.5 279.5,-107.5 279.5,-88.5 160.5,-88.5"/>
<text text-anchor="middle" x="220" y="-95.5" font-family="Helvetica,sans-Serif" font-size="10.00">scram::Config::Config</text>
</a>
</g>
</g>
<!-- Node1&#45;&gt;Node2 -->
<g id="edge1" class="edge"><title>Node1&#45;&gt;Node2</title>
<path fill="none" stroke="midnightblue" d="M124.249,-71.6969C144.83,-77.4101 166.862,-83.5262 184.496,-88.4217"/>
<polygon fill="midnightblue" stroke="midnightblue" points="125.175,-68.3217 114.603,-69.0192 123.303,-75.0667 125.175,-68.3217"/>
</g>
<!-- Node3 -->
<g id="node3" class="node"><title>Node3</title>
<g id="a_node3"><a xlink:href="classscram_1_1mef_1_1Initializer.xhtml#aa6329e9c18a0ef61415f8c7cb6076265" target="_top" xlink:title="Specializations for elements defined after registration. ">
<polygon fill="white" stroke="black" points="160.5,-39 160.5,-69 279.5,-69 279.5,-39 160.5,-39"/>
<text text-anchor="start" x="168.5" y="-57" font-family="Helvetica,sans-Serif" font-size="10.00">scram::mef::Initializer</text>
<text text-anchor="middle" x="220" y="-46" font-family="Helvetica,sans-Serif" font-size="10.00">::Define</text>
</a>
</g>
</g>
<!-- Node1&#45;&gt;Node3 -->
<g id="edge2" class="edge"><title>Node1&#45;&gt;Node3</title>
<path fill="none" stroke="midnightblue" d="M129.323,-54C139.684,-54 150.287,-54 160.407,-54"/>
<polygon fill="midnightblue" stroke="midnightblue" points="129.069,-50.5001 119.069,-54 129.069,-57.5001 129.069,-50.5001"/>
</g>
<!-- Node4 -->
<g id="node4" class="node"><title>Node4</title>
<g id="a_node4"><a xlink:href="classscram_1_1Reporter.xhtml#a87eeccfed9678b035c745b6ed1610dbf" target="_top" xlink:title="Reports the results of risk analysis on a model. ">
<polygon fill="white" stroke="black" points="155,-0.5 155,-19.5 285,-19.5 285,-0.5 155,-0.5"/>
<text text-anchor="middle" x="220" y="-7.5" font-family="Helvetica,sans-Serif" font-size="10.00">scram::Reporter::Report</text>
</a>
</g>
</g>
<!-- Node1&#45;&gt;Node4 -->
<g id="edge3" class="edge"><title>Node1&#45;&gt;Node4</title>
<path fill="none" stroke="midnightblue" d="M124.249,-36.3031C144.83,-30.5899 166.862,-24.4738 184.496,-19.5783"/>
<polygon fill="midnightblue" stroke="midnightblue" points="123.303,-32.9333 114.603,-38.9808 125.175,-39.6783 123.303,-32.9333"/>
</g>
<!-- Node5 -->
<g id="node5" class="node"><title>Node5</title>
<g id="a_node5"><a xlink:href="classscram_1_1Reporter.xhtml#a7f4903f4c19a9630f828395eded780bf" target="_top" xlink:title="A convenience function to generate the report into a file. ">
<polygon fill="white" stroke="black" points="321,-0.5 321,-19.5 451,-19.5 451,-0.5 321,-0.5"/>
<text text-anchor="middle" x="386" y="-7.5" font-family="Helvetica,sans-Serif" font-size="10.00">scram::Reporter::Report</text>
</a>
</g>
</g>
<!-- Node4&#45;&gt;Node5 -->
<g id="edge4" class="edge"><title>Node4&#45;&gt;Node5</title>
<path fill="none" stroke="midnightblue" d="M295.564,-10C304.004,-10 312.549,-10 320.839,-10"/>
<polygon fill="midnightblue" stroke="midnightblue" points="295.346,-6.5001 285.346,-10 295.346,-13.5001 295.346,-6.5001"/>
</g>
</g>
</svg>
