<?xml version="1.0" encoding="UTF-8" standalone="no"?>
<!DOCTYPE svg PUBLIC "-//W3C//DTD SVG 1.1//EN"
 "http://www.w3.org/Graphics/SVG/1.1/DTD/svg11.dtd">
<!-- Generated by graphviz version 2.38.0 (20140413.2041)
 -->
<!-- Title: scram::xml::Document::get Pages: 1 -->
<svg width="472pt" height="88pt"
 viewBox="0.00 0.00 472.00 88.00" xmlns="http://www.w3.org/2000/svg" xmlns:xlink="http://www.w3.org/1999/xlink">
<g id="graph0" class="graph" transform="scale(1 1) rotate(0) translate(4 84)">
<title>scram::xml::Document::get</title>
<polygon fill="white" stroke="none" points="-4,4 -4,-84 468,-84 468,4 -4,4"/>
<!-- Node1 -->
<g id="node1" class="node"><title>Node1</title>
<polygon fill="#bfbfbf" stroke="black" points="0,-30 0,-49 148,-49 148,-30 0,-30"/>
<text text-anchor="middle" x="74" y="-37" font-family="Helvetica,sans-Serif" font-size="10.00">scram::xml::Document::get</text>
</g>
<!-- Node2 -->
<g id="node2" class="node"><title>Node2</title>
<g id="a_node2"><a xlink:href="classscram_1_1xml_1_1Validator.xhtml#ad1626f649d58bab2db7a077f4b6b061e" target="_top" xlink:title="Validates XML DOM documents against the schema. ">
<polygon fill="white" stroke="black" points="184,-24.5 184,-54.5 302,-54.5 302,-24.5 184,-24.5"/>
<text text-anchor="start" x="192" y="-42.5" font-family="Helvetica,sans-Serif" font-size="10.00">scram::xml::Validator</text>
<text text-anchor="middle" x="243" y="-31.5" font-family="Helvetica,sans-Serif" font-size="10.00">::validate</text>
</a>
</g>
</g>
<!-- Node1&#45;&gt;Node2 -->
<g id="edge1" class="edge"><title>Node1&#45;&gt;Node2</title>
<path fill="none" stroke="midnightblue" d="M158.35,-39.5C166.975,-39.5 175.602,-39.5 183.863,-39.5"/>
<polygon fill="midnightblue" stroke="midnightblue" points="158.249,-36.0001 148.249,-39.5 158.249,-43.0001 158.249,-36.0001"/>
</g>
<!-- Node3 -->
<g id="node3" class="node"><title>Node3</title>
<g id="a_node3"><a xlink:href="classscram_1_1mef_1_1Initializer.xhtml#aa0e4d36e8f44c9f7952c86e67f2de273" target="_top" xlink:title="Reads input files with the structure of analysis constructs. ">
<polygon fill="white" stroke="black" points="341.5,-49.5 341.5,-79.5 460.5,-79.5 460.5,-49.5 341.5,-49.5"/>
<text text-anchor="start" x="349.5" y="-67.5" font-family="Helvetica,sans-Serif" font-size="10.00">scram::mef::Initializer</text>
<text text-anchor="middle" x="401" y="-56.5" font-family="Helvetica,sans-Serif" font-size="10.00">::Initializer</text>
</a>
</g>
</g>
<!-- Node2&#45;&gt;Node3 -->
<g id="edge2" class="edge"><title>Node2&#45;&gt;Node3</title>
<path fill="none" stroke="midnightblue" d="M312.132,-50.4186C321.867,-51.9787 331.811,-53.5722 341.343,-55.0998"/>
<polygon fill="midnightblue" stroke="midnightblue" points="312.517,-46.9356 302.089,-48.8091 311.409,-53.8474 312.517,-46.9356"/>
</g>
<!-- Node4 -->
<g id="node4" class="node"><title>Node4</title>
<g id="a_node4"><a xlink:href="classscram_1_1xml_1_1Document.xhtml#a1672ae449b286137ae239ef4adfada44" target="_top" xlink:title="Parses XML input document. ">
<polygon fill="white" stroke="black" points="338,-0.5 338,-30.5 464,-30.5 464,-0.5 338,-0.5"/>
<text text-anchor="start" x="346" y="-18.5" font-family="Helvetica,sans-Serif" font-size="10.00">scram::xml::Document</text>
<text text-anchor="middle" x="401" y="-7.5" font-family="Helvetica,sans-Serif" font-size="10.00">::Document</text>
</a>
</g>
</g>
<!-- Node2&#45;&gt;Node4 -->
<g id="edge3" class="edge"><title>Node2&#45;&gt;Node4</title>
<path fill="none" stroke="midnightblue" d="M312.082,-29.0258C320.681,-27.7029 329.443,-26.3549 337.942,-25.0474"/>
<polygon fill="midnightblue" stroke="midnightblue" points="311.44,-25.5833 302.089,-30.5633 312.505,-32.5019 311.44,-25.5833"/>
</g>
</g>
</svg>
