<?xml version="1.0" encoding="UTF-8" standalone="no"?>
<!DOCTYPE svg PUBLIC "-//W3C//DTD SVG 1.1//EN"
 "http://www.w3.org/Graphics/SVG/1.1/DTD/svg11.dtd">
<!-- Generated by graphviz version 2.38.0 (20140413.2041)
 -->
<!-- Title: scram::Error Pages: 1 -->
<svg width="1421pt" height="370pt"
 viewBox="0.00 0.00 1421.00 370.00" xmlns="http://www.w3.org/2000/svg" xmlns:xlink="http://www.w3.org/1999/xlink">
<g id="graph0" class="graph" transform="scale(1 1) rotate(0) translate(4 366)">
<title>scram::Error</title>
<polygon fill="white" stroke="none" points="-4,4 -4,-366 1417,-366 1417,4 -4,4"/>
<!-- Node1 -->
<g id="node1" class="node"><title>Node1</title>
<polygon fill="#bfbfbf" stroke="black" points="369.5,-199.5 369.5,-267.5 445.5,-267.5 445.5,-199.5 369.5,-199.5"/>
<text text-anchor="middle" x="407.5" y="-255.5" font-family="Helvetica,sans-Serif" font-size="10.00">scram::Error</text>
<polyline fill="none" stroke="black" points="369.5,-248.5 445.5,-248.5 "/>
<text text-anchor="middle" x="407.5" y="-236.5" font-family="Helvetica,sans-Serif" font-size="10.00"> </text>
<polyline fill="none" stroke="black" points="369.5,-229.5 445.5,-229.5 "/>
<text text-anchor="start" x="377.5" y="-217.5" font-family="Helvetica,sans-Serif" font-size="10.00">+ Error()</text>
<text text-anchor="start" x="377.5" y="-206.5" font-family="Helvetica,sans-Serif" font-size="10.00">+ what()</text>
</g>
<!-- Node4 -->
<g id="node4" class="node"><title>Node4</title>
<g id="a_node4"><a xlink:href="structscram_1_1DLError.xhtml" target="_top" xlink:title="Dynamic library errors. ">
<polygon fill="white" stroke="black" points="0,-105.5 0,-162.5 89,-162.5 89,-105.5 0,-105.5"/>
<text text-anchor="middle" x="44.5" y="-150.5" font-family="Helvetica,sans-Serif" font-size="10.00">scram::DLError</text>
<polyline fill="none" stroke="black" points="0,-143.5 89,-143.5 "/>
<text text-anchor="middle" x="44.5" y="-131.5" font-family="Helvetica,sans-Serif" font-size="10.00"> </text>
<polyline fill="none" stroke="black" points="0,-124.5 89,-124.5 "/>
<text text-anchor="middle" x="44.5" y="-112.5" font-family="Helvetica,sans-Serif" font-size="10.00"> </text>
</a>
</g>
</g>
<!-- Node1&#45;&gt;Node4 -->
<g id="edge3" class="edge"><title>Node1&#45;&gt;Node4</title>
<path fill="none" stroke="midnightblue" d="M359.095,-225.73C297.113,-216.145 187.022,-196.012 97.5,-163 94.7661,-161.992 91.9963,-160.869 89.231,-159.669"/>
<polygon fill="none" stroke="midnightblue" points="358.943,-229.247 369.355,-227.288 359.994,-222.326 358.943,-229.247"/>
</g>
<!-- Node5 -->
<g id="node5" class="node"><title>Node5</title>
<g id="a_node5"><a xlink:href="structscram_1_1IllegalOperation.xhtml" target="_top" xlink:title="This error can be used to indicate that call for a function or operation is not legal. ">
<polygon fill="white" stroke="black" points="107,-105.5 107,-162.5 234,-162.5 234,-105.5 107,-105.5"/>
<text text-anchor="middle" x="170.5" y="-150.5" font-family="Helvetica,sans-Serif" font-size="10.00">scram::IllegalOperation</text>
<polyline fill="none" stroke="black" points="107,-143.5 234,-143.5 "/>
<text text-anchor="middle" x="170.5" y="-131.5" font-family="Helvetica,sans-Serif" font-size="10.00"> </text>
<polyline fill="none" stroke="black" points="107,-124.5 234,-124.5 "/>
<text text-anchor="middle" x="170.5" y="-112.5" font-family="Helvetica,sans-Serif" font-size="10.00"> </text>
</a>
</g>
</g>
<!-- Node1&#45;&gt;Node5 -->
<g id="edge4" class="edge"><title>Node1&#45;&gt;Node5</title>
<path fill="none" stroke="midnightblue" d="M360.101,-213C324.021,-198.157 273.987,-177.574 234.377,-161.279"/>
<polygon fill="none" stroke="midnightblue" points="358.842,-216.267 369.422,-216.835 361.505,-209.794 358.842,-216.267"/>
</g>
<!-- Node6 -->
<g id="node6" class="node"><title>Node6</title>
<g id="a_node6"><a xlink:href="structscram_1_1IOError.xhtml" target="_top" xlink:title="For input/output related errors. ">
<polygon fill="white" stroke="black" points="252.5,-105.5 252.5,-162.5 338.5,-162.5 338.5,-105.5 252.5,-105.5"/>
<text text-anchor="middle" x="295.5" y="-150.5" font-family="Helvetica,sans-Serif" font-size="10.00">scram::IOError</text>
<polyline fill="none" stroke="black" points="252.5,-143.5 338.5,-143.5 "/>
<text text-anchor="middle" x="295.5" y="-131.5" font-family="Helvetica,sans-Serif" font-size="10.00"> </text>
<polyline fill="none" stroke="black" points="252.5,-124.5 338.5,-124.5 "/>
<text text-anchor="middle" x="295.5" y="-112.5" font-family="Helvetica,sans-Serif" font-size="10.00"> </text>
</a>
</g>
</g>
<!-- Node1&#45;&gt;Node6 -->
<g id="edge5" class="edge"><title>Node1&#45;&gt;Node6</title>
<path fill="none" stroke="midnightblue" d="M361.726,-192.652C350.204,-182.621 338.084,-172.071 327.407,-162.777"/>
<polygon fill="none" stroke="midnightblue" points="359.741,-195.565 369.582,-199.491 364.338,-190.285 359.741,-195.565"/>
</g>
<!-- Node7 -->
<g id="node7" class="node"><title>Node7</title>
<g id="a_node7"><a xlink:href="structscram_1_1LogicError.xhtml" target="_top" xlink:title="Signals internal logic errors, for example, pre&#45;condition failure or use of functionality in ways not...">
<polygon fill="white" stroke="black" points="357,-105.5 357,-162.5 458,-162.5 458,-105.5 357,-105.5"/>
<text text-anchor="middle" x="407.5" y="-150.5" font-family="Helvetica,sans-Serif" font-size="10.00">scram::LogicError</text>
<polyline fill="none" stroke="black" points="357,-143.5 458,-143.5 "/>
<text text-anchor="middle" x="407.5" y="-131.5" font-family="Helvetica,sans-Serif" font-size="10.00"> </text>
<polyline fill="none" stroke="black" points="357,-124.5 458,-124.5 "/>
<text text-anchor="middle" x="407.5" y="-112.5" font-family="Helvetica,sans-Serif" font-size="10.00"> </text>
</a>
</g>
</g>
<!-- Node1&#45;&gt;Node7 -->
<g id="edge6" class="edge"><title>Node1&#45;&gt;Node7</title>
<path fill="none" stroke="midnightblue" d="M407.5,-189.454C407.5,-180.404 407.5,-171.088 407.5,-162.777"/>
<polygon fill="none" stroke="midnightblue" points="404,-189.491 407.5,-199.491 411,-189.491 404,-189.491"/>
</g>
<!-- Node8 -->
<g id="node8" class="node"><title>Node8</title>
<g id="a_node8"><a xlink:href="structscram_1_1mef_1_1ValidityError.xhtml" target="_top" xlink:title="Model validity errors. ">
<polygon fill="white" stroke="black" points="476.5,-105.5 476.5,-162.5 610.5,-162.5 610.5,-105.5 476.5,-105.5"/>
<text text-anchor="middle" x="543.5" y="-150.5" font-family="Helvetica,sans-Serif" font-size="10.00">scram::mef::ValidityError</text>
<polyline fill="none" stroke="black" points="476.5,-143.5 610.5,-143.5 "/>
<text text-anchor="middle" x="543.5" y="-131.5" font-family="Helvetica,sans-Serif" font-size="10.00"> </text>
<polyline fill="none" stroke="black" points="476.5,-124.5 610.5,-124.5 "/>
<text text-anchor="middle" x="543.5" y="-112.5" font-family="Helvetica,sans-Serif" font-size="10.00"> </text>
</a>
</g>
</g>
<!-- Node1&#45;&gt;Node8 -->
<g id="edge7" class="edge"><title>Node1&#45;&gt;Node8</title>
<path fill="none" stroke="midnightblue" d="M454.221,-199.005C470.802,-187.118 489.261,-173.885 505.07,-162.551"/>
<polygon fill="none" stroke="midnightblue" points="451.833,-196.41 445.746,-205.081 455.912,-202.099 451.833,-196.41"/>
</g>
<!-- Node13 -->
<g id="node13" class="node"><title>Node13</title>
<g id="a_node13"><a xlink:href="structscram_1_1SettingsError.xhtml" target="_top" xlink:title="The error in analysis settings. ">
<polygon fill="white" stroke="black" points="628.5,-105.5 628.5,-162.5 744.5,-162.5 744.5,-105.5 628.5,-105.5"/>
<text text-anchor="middle" x="686.5" y="-150.5" font-family="Helvetica,sans-Serif" font-size="10.00">scram::SettingsError</text>
<polyline fill="none" stroke="black" points="628.5,-143.5 744.5,-143.5 "/>
<text text-anchor="middle" x="686.5" y="-131.5" font-family="Helvetica,sans-Serif" font-size="10.00"> </text>
<polyline fill="none" stroke="black" points="628.5,-124.5 744.5,-124.5 "/>
<text text-anchor="middle" x="686.5" y="-112.5" font-family="Helvetica,sans-Serif" font-size="10.00"> </text>
</a>
</g>
</g>
<!-- Node1&#45;&gt;Node13 -->
<g id="edge12" class="edge"><title>Node1&#45;&gt;Node13</title>
<path fill="none" stroke="midnightblue" d="M455.411,-217.982C498.625,-204.606 563.765,-183.745 619.5,-163 622.336,-161.945 625.228,-160.841 628.143,-159.707"/>
<polygon fill="none" stroke="midnightblue" points="454.252,-214.677 445.727,-220.968 456.314,-221.366 454.252,-214.677"/>
</g>
<!-- Node14 -->
<g id="node14" class="node"><title>Node14</title>
<g id="a_node14"><a xlink:href="structscram_1_1xml_1_1Error.xhtml" target="_top" xlink:title="The base for all XML related errors. ">
<polygon fill="white" stroke="black" points="988,-105.5 988,-162.5 1087,-162.5 1087,-105.5 988,-105.5"/>
<text text-anchor="middle" x="1037.5" y="-150.5" font-family="Helvetica,sans-Serif" font-size="10.00">scram::xml::Error</text>
<polyline fill="none" stroke="black" points="988,-143.5 1087,-143.5 "/>
<text text-anchor="middle" x="1037.5" y="-131.5" font-family="Helvetica,sans-Serif" font-size="10.00"> </text>
<polyline fill="none" stroke="black" points="988,-124.5 1087,-124.5 "/>
<text text-anchor="middle" x="1037.5" y="-112.5" font-family="Helvetica,sans-Serif" font-size="10.00"> </text>
</a>
</g>
</g>
<!-- Node1&#45;&gt;Node14 -->
<g id="edge13" class="edge"><title>Node1&#45;&gt;Node14</title>
<path fill="none" stroke="midnightblue" d="M456.051,-224.986C573.015,-206.885 869.443,-161.009 987.687,-142.709"/>
<polygon fill="none" stroke="midnightblue" points="455.308,-221.559 445.961,-226.548 456.379,-228.477 455.308,-221.559"/>
</g>
<!-- Node2 -->
<g id="node2" class="node"><title>Node2</title>
<polygon fill="white" stroke="#bfbfbf" points="311.5,-304.5 311.5,-361.5 395.5,-361.5 395.5,-304.5 311.5,-304.5"/>
<text text-anchor="middle" x="353.5" y="-349.5" font-family="Helvetica,sans-Serif" font-size="10.00">std::exception</text>
<polyline fill="none" stroke="#bfbfbf" points="311.5,-342.5 395.5,-342.5 "/>
<text text-anchor="middle" x="353.5" y="-330.5" font-family="Helvetica,sans-Serif" font-size="10.00"> </text>
<polyline fill="none" stroke="#bfbfbf" points="311.5,-323.5 395.5,-323.5 "/>
<text text-anchor="middle" x="353.5" y="-311.5" font-family="Helvetica,sans-Serif" font-size="10.00"> </text>
</g>
<!-- Node2&#45;&gt;Node1 -->
<g id="edge1" class="edge"><title>Node2&#45;&gt;Node1</title>
<path fill="none" stroke="midnightblue" d="M373.722,-295.488C378.755,-286.401 384.123,-276.708 389.065,-267.786"/>
<polygon fill="none" stroke="midnightblue" points="370.613,-293.878 368.83,-304.321 376.737,-297.269 370.613,-293.878"/>
</g>
<!-- Node3 -->
<g id="node3" class="node"><title>Node3</title>
<polygon fill="white" stroke="#bfbfbf" points="413.5,-304.5 413.5,-361.5 509.5,-361.5 509.5,-304.5 413.5,-304.5"/>
<text text-anchor="middle" x="461.5" y="-349.5" font-family="Helvetica,sans-Serif" font-size="10.00">boost::exception</text>
<polyline fill="none" stroke="#bfbfbf" points="413.5,-342.5 509.5,-342.5 "/>
<text text-anchor="middle" x="461.5" y="-330.5" font-family="Helvetica,sans-Serif" font-size="10.00"> </text>
<polyline fill="none" stroke="#bfbfbf" points="413.5,-323.5 509.5,-323.5 "/>
<text text-anchor="middle" x="461.5" y="-311.5" font-family="Helvetica,sans-Serif" font-size="10.00"> </text>
</g>
<!-- Node3&#45;&gt;Node1 -->
<g id="edge2" class="edge"><title>Node3&#45;&gt;Node1</title>
<path fill="none" stroke="midnightblue" d="M441.278,-295.488C436.245,-286.401 430.877,-276.708 425.935,-267.786"/>
<polygon fill="none" stroke="midnightblue" points="438.263,-297.269 446.17,-304.321 444.387,-293.878 438.263,-297.269"/>
</g>
<!-- Node9 -->
<g id="node9" class="node"><title>Node9</title>
<g id="a_node9"><a xlink:href="structscram_1_1mef_1_1CycleError.xhtml" target="_top" xlink:title="Unacceptable cycles in model structures. ">
<polygon fill="white" stroke="black" points="162.5,-6 162.5,-63 288.5,-63 288.5,-6 162.5,-6"/>
<text text-anchor="middle" x="225.5" y="-51" font-family="Helvetica,sans-Serif" font-size="10.00">scram::mef::CycleError</text>
<polyline fill="none" stroke="black" points="162.5,-44 288.5,-44 "/>
<text text-anchor="middle" x="225.5" y="-32" font-family="Helvetica,sans-Serif" font-size="10.00"> </text>
<polyline fill="none" stroke="black" points="162.5,-25 288.5,-25 "/>
<text text-anchor="middle" x="225.5" y="-13" font-family="Helvetica,sans-Serif" font-size="10.00"> </text>
</a>
</g>
</g>
<!-- Node8&#45;&gt;Node9 -->
<g id="edge8" class="edge"><title>Node8&#45;&gt;Node9</title>
<path fill="none" stroke="midnightblue" d="M466.808,-105.088C466.705,-105.059 466.603,-105.029 466.5,-105 392.68,-83.8267 370.333,-93.3531 297.5,-69 292.27,-67.2512 286.916,-65.2311 281.606,-63.067"/>
<polygon fill="none" stroke="midnightblue" points="465.904,-108.472 476.489,-108.011 467.927,-101.77 465.904,-108.472"/>
</g>
<!-- Node10 -->
<g id="node10" class="node"><title>Node10</title>
<g id="a_node10"><a xlink:href="structscram_1_1mef_1_1DomainError.xhtml" target="_top" xlink:title="Invalid domain for values or arguments. ">
<polygon fill="white" stroke="black" points="306.5,-6 306.5,-63 444.5,-63 444.5,-6 306.5,-6"/>
<text text-anchor="middle" x="375.5" y="-51" font-family="Helvetica,sans-Serif" font-size="10.00">scram::mef::DomainError</text>
<polyline fill="none" stroke="black" points="306.5,-44 444.5,-44 "/>
<text text-anchor="middle" x="375.5" y="-32" font-family="Helvetica,sans-Serif" font-size="10.00"> </text>
<polyline fill="none" stroke="black" points="306.5,-25 444.5,-25 "/>
<text text-anchor="middle" x="375.5" y="-13" font-family="Helvetica,sans-Serif" font-size="10.00"> </text>
</a>
</g>
</g>
<!-- Node8&#45;&gt;Node10 -->
<g id="edge9" class="edge"><title>Node8&#45;&gt;Node10</title>
<path fill="none" stroke="midnightblue" d="M487.069,-100.25C466.276,-88.1826 442.949,-74.6444 423.021,-63.0791"/>
<polygon fill="none" stroke="midnightblue" points="485.401,-103.329 495.807,-105.321 488.915,-97.2745 485.401,-103.329"/>
</g>
<!-- Node11 -->
<g id="node11" class="node"><title>Node11</title>
<g id="a_node11"><a xlink:href="structscram_1_1mef_1_1DuplicateElementError.xhtml" target="_top" xlink:title="This error indicates that elements must be unique. ">
<polygon fill="white" stroke="black" points="462.5,-0.5 462.5,-68.5 624.5,-68.5 624.5,-0.5 462.5,-0.5"/>
<text text-anchor="start" x="470.5" y="-56.5" font-family="Helvetica,sans-Serif" font-size="10.00">scram::mef::DuplicateElement</text>
<text text-anchor="middle" x="543.5" y="-45.5" font-family="Helvetica,sans-Serif" font-size="10.00">Error</text>
<polyline fill="none" stroke="black" points="462.5,-38.5 624.5,-38.5 "/>
<text text-anchor="middle" x="543.5" y="-26.5" font-family="Helvetica,sans-Serif" font-size="10.00"> </text>
<polyline fill="none" stroke="black" points="462.5,-19.5 624.5,-19.5 "/>
<text text-anchor="start" x="470.5" y="-7.5" font-family="Helvetica,sans-Serif" font-size="10.00">+ DuplicateElementError()</text>
</a>
</g>
</g>
<!-- Node8&#45;&gt;Node11 -->
<g id="edge10" class="edge"><title>Node8&#45;&gt;Node11</title>
<path fill="none" stroke="midnightblue" d="M543.5,-95.0631C543.5,-86.3933 543.5,-77.2431 543.5,-68.7855"/>
<polygon fill="none" stroke="midnightblue" points="540,-95.3212 543.5,-105.321 547,-95.3212 540,-95.3212"/>
</g>
<!-- Node12 -->
<g id="node12" class="node"><title>Node12</title>
<g id="a_node12"><a xlink:href="structscram_1_1mef_1_1UndefinedElement.xhtml" target="_top" xlink:title="The error for undefined elements in a model. ">
<polygon fill="white" stroke="black" points="642.5,-6 642.5,-63 808.5,-63 808.5,-6 642.5,-6"/>
<text text-anchor="middle" x="725.5" y="-51" font-family="Helvetica,sans-Serif" font-size="10.00">scram::mef::UndefinedElement</text>
<polyline fill="none" stroke="black" points="642.5,-44 808.5,-44 "/>
<text text-anchor="middle" x="725.5" y="-32" font-family="Helvetica,sans-Serif" font-size="10.00"> </text>
<polyline fill="none" stroke="black" points="642.5,-25 808.5,-25 "/>
<text text-anchor="start" x="650.5" y="-13" font-family="Helvetica,sans-Serif" font-size="10.00">+ UndefinedElement()</text>
</a>
</g>
</g>
<!-- Node8&#45;&gt;Node12 -->
<g id="edge11" class="edge"><title>Node8&#45;&gt;Node12</title>
<path fill="none" stroke="midnightblue" d="M604.031,-100.573C626.708,-88.4245 652.238,-74.7476 674.019,-63.0791"/>
<polygon fill="none" stroke="midnightblue" points="602.329,-97.5138 595.167,-105.321 605.635,-103.684 602.329,-97.5138"/>
</g>
<!-- Node15 -->
<g id="node15" class="node"><title>Node15</title>
<g id="a_node15"><a xlink:href="structscram_1_1xml_1_1ParseError.xhtml" target="_top" xlink:title="XML parsing errors. ">
<polygon fill="white" stroke="black" points="827,-6 827,-63 952,-63 952,-6 827,-6"/>
<text text-anchor="middle" x="889.5" y="-51" font-family="Helvetica,sans-Serif" font-size="10.00">scram::xml::ParseError</text>
<polyline fill="none" stroke="black" points="827,-44 952,-44 "/>
<text text-anchor="middle" x="889.5" y="-32" font-family="Helvetica,sans-Serif" font-size="10.00"> </text>
<polyline fill="none" stroke="black" points="827,-25 952,-25 "/>
<text text-anchor="middle" x="889.5" y="-13" font-family="Helvetica,sans-Serif" font-size="10.00"> </text>
</a>
</g>
</g>
<!-- Node14&#45;&gt;Node15 -->
<g id="edge14" class="edge"><title>Node14&#45;&gt;Node15</title>
<path fill="none" stroke="midnightblue" d="M986.803,-99.6018C968.736,-87.6997 948.606,-74.4379 931.364,-63.0791"/>
<polygon fill="none" stroke="midnightblue" points="985.209,-102.743 995.485,-105.321 989.06,-96.8971 985.209,-102.743"/>
</g>
<!-- Node16 -->
<g id="node16" class="node"><title>Node16</title>
<g id="a_node16"><a xlink:href="structscram_1_1xml_1_1StreamError.xhtml" target="_top" xlink:title="Errors in using XML streaming facilities. ">
<polygon fill="white" stroke="black" points="970,-6 970,-63 1105,-63 1105,-6 970,-6"/>
<text text-anchor="middle" x="1037.5" y="-51" font-family="Helvetica,sans-Serif" font-size="10.00">scram::xml::StreamError</text>
<polyline fill="none" stroke="black" points="970,-44 1105,-44 "/>
<text text-anchor="middle" x="1037.5" y="-32" font-family="Helvetica,sans-Serif" font-size="10.00"> </text>
<polyline fill="none" stroke="black" points="970,-25 1105,-25 "/>
<text text-anchor="middle" x="1037.5" y="-13" font-family="Helvetica,sans-Serif" font-size="10.00"> </text>
</a>
</g>
</g>
<!-- Node14&#45;&gt;Node16 -->
<g id="edge15" class="edge"><title>Node14&#45;&gt;Node16</title>
<path fill="none" stroke="midnightblue" d="M1037.5,-95.0433C1037.5,-84.4474 1037.5,-73.1352 1037.5,-63.248"/>
<polygon fill="none" stroke="midnightblue" points="1034,-95.3212 1037.5,-105.321 1041,-95.3212 1034,-95.3212"/>
</g>
<!-- Node17 -->
<g id="node17" class="node"><title>Node17</title>
<g id="a_node17"><a xlink:href="structscram_1_1xml_1_1ValidityError.xhtml" target="_top" xlink:title="XML document validity errors. ">
<polygon fill="white" stroke="black" points="1123,-6 1123,-63 1256,-63 1256,-6 1123,-6"/>
<text text-anchor="middle" x="1189.5" y="-51" font-family="Helvetica,sans-Serif" font-size="10.00">scram::xml::ValidityError</text>
<polyline fill="none" stroke="black" points="1123,-44 1256,-44 "/>
<text text-anchor="middle" x="1189.5" y="-32" font-family="Helvetica,sans-Serif" font-size="10.00"> </text>
<polyline fill="none" stroke="black" points="1123,-25 1256,-25 "/>
<text text-anchor="middle" x="1189.5" y="-13" font-family="Helvetica,sans-Serif" font-size="10.00"> </text>
</a>
</g>
</g>
<!-- Node14&#45;&gt;Node17 -->
<g id="edge16" class="edge"><title>Node14&#45;&gt;Node17</title>
<path fill="none" stroke="midnightblue" d="M1089.31,-99.7641C1107.93,-87.8203 1128.72,-74.4895 1146.5,-63.0791"/>
<polygon fill="none" stroke="midnightblue" points="1087.18,-96.976 1080.65,-105.321 1090.96,-102.868 1087.18,-96.976"/>
</g>
<!-- Node18 -->
<g id="node18" class="node"><title>Node18</title>
<g id="a_node18"><a xlink:href="structscram_1_1xml_1_1XIncludeError.xhtml" target="_top" xlink:title="XInclude resolution issues. ">
<polygon fill="white" stroke="black" points="1274,-6 1274,-63 1413,-63 1413,-6 1274,-6"/>
<text text-anchor="middle" x="1343.5" y="-51" font-family="Helvetica,sans-Serif" font-size="10.00">scram::xml::XIncludeError</text>
<polyline fill="none" stroke="black" points="1274,-44 1413,-44 "/>
<text text-anchor="middle" x="1343.5" y="-32" font-family="Helvetica,sans-Serif" font-size="10.00"> </text>
<polyline fill="none" stroke="black" points="1274,-25 1413,-25 "/>
<text text-anchor="middle" x="1343.5" y="-13" font-family="Helvetica,sans-Serif" font-size="10.00"> </text>
</a>
</g>
</g>
<!-- Node14&#45;&gt;Node18 -->
<g id="edge17" class="edge"><title>Node14&#45;&gt;Node18</title>
<path fill="none" stroke="midnightblue" d="M1096.9,-118.621C1143.31,-106.839 1209.16,-88.9076 1265.5,-69 1270.64,-67.1832 1275.93,-65.1918 1281.21,-63.1142"/>
<polygon fill="none" stroke="midnightblue" points="1095.85,-115.276 1087.01,-121.114 1097.56,-122.064 1095.85,-115.276"/>
</g>
</g>
</svg>
