<?xml version="1.0" encoding="UTF-8" standalone="no"?>
<!DOCTYPE svg PUBLIC "-//W3C//DTD SVG 1.1//EN"
 "http://www.w3.org/Graphics/SVG/1.1/DTD/svg11.dtd">
<!-- Generated by graphviz version 2.38.0 (20140413.2041)
 -->
<!-- Title: config.cc Pages: 1 -->
<!--zoomable 274 -->
<svg id="main" version="1.1" xmlns="http://www.w3.org/2000/svg" xmlns:xlink="http://www.w3.org/1999/xlink" xml:space="preserve" onload="init(evt)">
<style type="text/css"><![CDATA[
.edge:hover path { stroke: red; }
.edge:hover polygon { stroke: red; fill: red; }
]]></style>
<script type="text/javascript"><![CDATA[
var edges = document.getElementsByTagName('g');
if (edges && edges.length) {
  for (var i=0;i<edges.length;i++) {
    if (edges[i].id.substr(0,4)=='edge') {
      edges[i].setAttribute('class','edge');
    }
  }
}
]]></script>
        <defs>
                <circle id="rim" cx="0" cy="0" r="7"/>
                <circle id="rim2" cx="0" cy="0" r="3.5"/>
                <g id="zoomPlus">
                        <use xlink:href="#rim" fill="#404040">
                                <set attributeName="fill" to="#808080" begin="zoomplus.mouseover" end="zoomplus.mouseout"/>
                        </use>
                        <path d="M-4,0h8M0,-4v8" fill="none" stroke="white" stroke-width="1.5" pointer-events="none"/>
                </g>
                <g id="zoomMin">
                        <use xlink:href="#rim" fill="#404040">
                                <set attributeName="fill" to="#808080" begin="zoomminus.mouseover" end="zoomminus.mouseout"/>
                        </use>
                        <path d="M-4,0h8" fill="none" stroke="white" stroke-width="1.5" pointer-events="none"/>
                </g>
                <g id="dirArrow">
                        <path fill="none" stroke="white" stroke-width="1.5" d="M0,-3.0v7 M-2.5,-0.5L0,-3.0L2.5,-0.5"/>
                </g>
               <g id="resetDef">
                       <use xlink:href="#rim2" fill="#404040">
                               <set attributeName="fill" to="#808080" begin="reset.mouseover" end="reset.mouseout"/>
                       </use>
               </g>
        </defs>

<script type="text/javascript">
var viewWidth = 2667;
var viewHeight = 274;
var sectionId = 'dynsection-0';
</script>
<script xlink:href="svgpan.js"/>
<svg id="graph" class="graph">
<g id="viewport">
<title>config.cc</title>
<polygon fill="white" stroke="none" points="-4,4 -4,-270 2663,-270 2663,4 -4,4"/>
<!-- Node1 -->
<g id="node1" class="node"><title>Node1</title>
<polygon fill="#bfbfbf" stroke="black" points="2111.5,-246.5 2111.5,-265.5 2170.5,-265.5 2170.5,-246.5 2111.5,-246.5"/>
<text text-anchor="middle" x="2141" y="-253.5" font-family="Helvetica,sans-Serif" font-size="10.00">config.cc</text>
</g>
<!-- Node2 -->
<g id="node2" class="node"><title>Node2</title>
<g id="a_node2"><a xlink:href="config_8h.xhtml" target="_top" xlink:title="Configuration management facilities to make various setups for analysis possible. ...">
<polygon fill="white" stroke="black" points="1373,-190.5 1373,-209.5 1427,-209.5 1427,-190.5 1373,-190.5"/>
<text text-anchor="middle" x="1400" y="-197.5" font-family="Helvetica,sans-Serif" font-size="10.00">config.h</text>
</a>
</g>
</g>
<!-- Node1&#45;&gt;Node2 -->
<g id="edge1" class="edge"><title>Node1&#45;&gt;Node2</title>
<path fill="none" stroke="midnightblue" d="M2111.49,-252.85C1994.99,-244.359 1566.99,-213.169 1437.42,-203.727"/>
<polygon fill="midnightblue" stroke="midnightblue" points="1437.44,-200.219 1427.21,-202.983 1436.93,-207.2 1437.44,-200.219"/>
</g>
<!-- Node8 -->
<g id="node8" class="node"><title>Node8</title>
<polygon fill="white" stroke="#bfbfbf" points="495.5,-73 495.5,-92 564.5,-92 564.5,-73 495.5,-73"/>
<text text-anchor="middle" x="530" y="-80" font-family="Helvetica,sans-Serif" font-size="10.00">string_view</text>
</g>
<!-- Node1&#45;&gt;Node8 -->
<g id="edge38" class="edge"><title>Node1&#45;&gt;Node8</title>
<path fill="none" stroke="midnightblue" d="M2111.44,-254.641C1923.53,-252.281 899.168,-238.19 763,-210 696.567,-196.247 679.962,-187.555 621,-154 593.087,-138.115 564.359,-114.392 546.838,-98.9309"/>
<polygon fill="midnightblue" stroke="midnightblue" points="548.973,-96.144 539.19,-92.0754 544.3,-101.356 548.973,-96.144"/>
</g>
<!-- Node14 -->
<g id="node14" class="node"><title>Node14</title>
<polygon fill="white" stroke="#bfbfbf" points="582.5,-73 582.5,-92 639.5,-92 639.5,-73 582.5,-73"/>
<text text-anchor="middle" x="611" y="-80" font-family="Helvetica,sans-Serif" font-size="10.00">memory</text>
</g>
<!-- Node1&#45;&gt;Node14 -->
<g id="edge37" class="edge"><title>Node1&#45;&gt;Node14</title>
<path fill="none" stroke="midnightblue" d="M2111.46,-254.858C1911.9,-253.662 764.815,-242.933 641,-154 624.322,-142.021 616.849,-118.852 613.545,-102.346"/>
<polygon fill="midnightblue" stroke="midnightblue" points="616.951,-101.494 611.861,-92.2017 610.046,-102.64 616.951,-101.494"/>
</g>
<!-- Node17 -->
<g id="node17" class="node"><title>Node17</title>
<polygon fill="white" stroke="#bfbfbf" points="2093.5,-67.5 2093.5,-97.5 2220.5,-97.5 2220.5,-67.5 2093.5,-67.5"/>
<text text-anchor="start" x="2101.5" y="-85.5" font-family="Helvetica,sans-Serif" font-size="10.00">boost/exception/errinfo</text>
<text text-anchor="middle" x="2157" y="-74.5" font-family="Helvetica,sans-Serif" font-size="10.00">_at_line.hpp</text>
</g>
<!-- Node1&#45;&gt;Node17 -->
<g id="edge40" class="edge"><title>Node1&#45;&gt;Node17</title>
<path fill="none" stroke="midnightblue" d="M2137.4,-246.222C2133.94,-237.285 2128.97,-222.942 2127,-210 2121.93,-176.606 2118.05,-166.572 2127,-134 2129.7,-124.179 2134.86,-114.334 2140.15,-105.98"/>
<polygon fill="midnightblue" stroke="midnightblue" points="2143.13,-107.816 2145.83,-97.5702 2137.33,-103.898 2143.13,-107.816"/>
</g>
<!-- Node19 -->
<g id="node19" class="node"><title>Node19</title>
<polygon fill="white" stroke="#bfbfbf" points="2238.5,-67.5 2238.5,-97.5 2365.5,-97.5 2365.5,-67.5 2238.5,-67.5"/>
<text text-anchor="start" x="2246.5" y="-85.5" font-family="Helvetica,sans-Serif" font-size="10.00">boost/exception/errinfo</text>
<text text-anchor="middle" x="2302" y="-74.5" font-family="Helvetica,sans-Serif" font-size="10.00">_file_name.hpp</text>
</g>
<!-- Node1&#45;&gt;Node19 -->
<g id="edge41" class="edge"><title>Node1&#45;&gt;Node19</title>
<path fill="none" stroke="midnightblue" d="M2143.92,-246.348C2148.62,-233.234 2158.8,-207.957 2173,-190 2201.08,-154.491 2242.79,-122.74 2271.12,-103.335"/>
<polygon fill="midnightblue" stroke="midnightblue" points="2273.12,-106.21 2279.46,-97.7185 2269.21,-100.405 2273.12,-106.21"/>
</g>
<!-- Node26 -->
<g id="node26" class="node"><title>Node26</title>
<g id="a_node26"><a xlink:href="error_8h.xhtml" target="_top" xlink:title="Exceptions for SCRAM. ">
<polygon fill="white" stroke="black" points="429,-73 429,-92 477,-92 477,-73 429,-73"/>
<text text-anchor="middle" x="453" y="-80" font-family="Helvetica,sans-Serif" font-size="10.00">error.h</text>
</a>
</g>
</g>
<!-- Node1&#45;&gt;Node26 -->
<g id="edge46" class="edge"><title>Node1&#45;&gt;Node26</title>
<path fill="none" stroke="midnightblue" d="M2111.34,-254.903C1916.99,-254.156 829.042,-248.284 687,-210 600.723,-186.746 511.191,-126.38 472.611,-98.2851"/>
<polygon fill="midnightblue" stroke="midnightblue" points="474.467,-95.3055 464.342,-92.1861 470.312,-100.939 474.467,-95.3055"/>
</g>
<!-- Node33 -->
<g id="node33" class="node"><title>Node33</title>
<polygon fill="white" stroke="#bfbfbf" points="2207,-190.5 2207,-209.5 2259,-209.5 2259,-190.5 2207,-190.5"/>
<text text-anchor="middle" x="2233" y="-197.5" font-family="Helvetica,sans-Serif" font-size="10.00">cassert</text>
</g>
<!-- Node1&#45;&gt;Node33 -->
<g id="edge36" class="edge"><title>Node1&#45;&gt;Node33</title>
<path fill="none" stroke="midnightblue" d="M2155.78,-246.324C2170.27,-237.822 2192.57,-224.729 2209.49,-214.797"/>
<polygon fill="midnightblue" stroke="midnightblue" points="2211.4,-217.735 2218.26,-209.655 2207.86,-211.698 2211.4,-217.735"/>
</g>
<!-- Node34 -->
<g id="node34" class="node"><title>Node34</title>
<polygon fill="white" stroke="#bfbfbf" points="2277,-190.5 2277,-209.5 2363,-209.5 2363,-190.5 2277,-190.5"/>
<text text-anchor="middle" x="2320" y="-197.5" font-family="Helvetica,sans-Serif" font-size="10.00">boost/predef.h</text>
</g>
<!-- Node1&#45;&gt;Node34 -->
<g id="edge39" class="edge"><title>Node1&#45;&gt;Node34</title>
<path fill="none" stroke="midnightblue" d="M2169.36,-246.444C2199.74,-237.28 2248.11,-222.688 2281.82,-212.519"/>
<polygon fill="midnightblue" stroke="midnightblue" points="2283.21,-215.756 2291.77,-209.516 2281.18,-209.054 2283.21,-215.756"/>
</g>
<!-- Node35 -->
<g id="node35" class="node"><title>Node35</title>
<polygon fill="white" stroke="#bfbfbf" points="2381,-190.5 2381,-209.5 2497,-209.5 2497,-190.5 2381,-190.5"/>
<text text-anchor="middle" x="2439" y="-197.5" font-family="Helvetica,sans-Serif" font-size="10.00">boost/filesystem.hpp</text>
</g>
<!-- Node1&#45;&gt;Node35 -->
<g id="edge42" class="edge"><title>Node1&#45;&gt;Node35</title>
<path fill="none" stroke="midnightblue" d="M2170.66,-249.625C2219.75,-240.73 2318.71,-222.798 2381.76,-211.372"/>
<polygon fill="midnightblue" stroke="midnightblue" points="2382.73,-214.754 2391.95,-209.527 2381.48,-207.866 2382.73,-214.754"/>
</g>
<!-- Node36 -->
<g id="node36" class="node"><title>Node36</title>
<polygon fill="white" stroke="#bfbfbf" points="2515,-190.5 2515,-209.5 2659,-209.5 2659,-190.5 2515,-190.5"/>
<text text-anchor="middle" x="2587" y="-197.5" font-family="Helvetica,sans-Serif" font-size="10.00">boost/range/algorithm.hpp</text>
</g>
<!-- Node1&#45;&gt;Node36 -->
<g id="edge43" class="edge"><title>Node1&#45;&gt;Node36</title>
<path fill="none" stroke="midnightblue" d="M2170.61,-251.415C2238.13,-243.239 2405.46,-222.981 2506.24,-210.778"/>
<polygon fill="midnightblue" stroke="midnightblue" points="2506.88,-214.227 2516.38,-209.55 2506.04,-207.277 2506.88,-214.227"/>
</g>
<!-- Node37 -->
<g id="node37" class="node"><title>Node37</title>
<g id="a_node37"><a xlink:href="env_8h.xhtml" target="_top" xlink:title="SCRAM&#45;specific environment variables. ">
<polygon fill="white" stroke="black" points="2271,-134.5 2271,-153.5 2313,-153.5 2313,-134.5 2271,-134.5"/>
<text text-anchor="middle" x="2292" y="-141.5" font-family="Helvetica,sans-Serif" font-size="10.00">env.h</text>
</a>
</g>
</g>
<!-- Node1&#45;&gt;Node37 -->
<g id="edge44" class="edge"><title>Node1&#45;&gt;Node37</title>
<path fill="none" stroke="midnightblue" d="M2146.77,-246.427C2156.17,-232.964 2175.99,-206.684 2198,-190 2217.28,-175.386 2242.06,-163.763 2261.33,-155.993"/>
<polygon fill="midnightblue" stroke="midnightblue" points="2262.81,-159.175 2270.86,-152.285 2260.27,-152.652 2262.81,-159.175"/>
</g>
<!-- Node3 -->
<g id="node3" class="node"><title>Node3</title>
<polygon fill="white" stroke="#bfbfbf" points="1404,-6 1404,-25 1448,-25 1448,-6 1404,-6"/>
<text text-anchor="middle" x="1426" y="-13" font-family="Helvetica,sans-Serif" font-size="10.00">string</text>
</g>
<!-- Node2&#45;&gt;Node3 -->
<g id="edge2" class="edge"><title>Node2&#45;&gt;Node3</title>
<path fill="none" stroke="midnightblue" d="M1427.16,-199.188C1539.18,-199.333 1963.3,-193.489 2045,-98 2053.96,-87.5311 2054.34,-77.1307 2045,-67 2004.97,-23.5666 1579.91,-17.488 1458.32,-16.638"/>
<polygon fill="midnightblue" stroke="midnightblue" points="1458.18,-13.1372 1448.16,-16.5745 1458.14,-20.137 1458.18,-13.1372"/>
</g>
<!-- Node4 -->
<g id="node4" class="node"><title>Node4</title>
<polygon fill="white" stroke="#bfbfbf" points="1209.5,-134.5 1209.5,-153.5 1256.5,-153.5 1256.5,-134.5 1209.5,-134.5"/>
<text text-anchor="middle" x="1233" y="-141.5" font-family="Helvetica,sans-Serif" font-size="10.00">vector</text>
</g>
<!-- Node2&#45;&gt;Node4 -->
<g id="edge3" class="edge"><title>Node2&#45;&gt;Node4</title>
<path fill="none" stroke="midnightblue" d="M1373.54,-190.444C1344.49,-181.051 1297.81,-165.955 1266.29,-155.766"/>
<polygon fill="midnightblue" stroke="midnightblue" points="1267.23,-152.39 1256.64,-152.643 1265.08,-159.05 1267.23,-152.39"/>
</g>
<!-- Node5 -->
<g id="node5" class="node"><title>Node5</title>
<polygon fill="white" stroke="#bfbfbf" points="1274.5,-134.5 1274.5,-153.5 1415.5,-153.5 1415.5,-134.5 1274.5,-134.5"/>
<text text-anchor="middle" x="1345" y="-141.5" font-family="Helvetica,sans-Serif" font-size="10.00">boost/filesystem/path.hpp</text>
</g>
<!-- Node2&#45;&gt;Node5 -->
<g id="edge4" class="edge"><title>Node2&#45;&gt;Node5</title>
<path fill="none" stroke="midnightblue" d="M1390.92,-190.083C1382.83,-182.141 1370.8,-170.335 1361.09,-160.797"/>
<polygon fill="midnightblue" stroke="midnightblue" points="1363.5,-158.26 1353.91,-153.751 1358.6,-163.254 1363.5,-158.26"/>
</g>
<!-- Node6 -->
<g id="node6" class="node"><title>Node6</title>
<g id="a_node6"><a xlink:href="settings_8h.xhtml" target="_top" xlink:title="Builder for settings. ">
<polygon fill="white" stroke="black" points="650,-134.5 650,-153.5 714,-153.5 714,-134.5 650,-134.5"/>
<text text-anchor="middle" x="682" y="-141.5" font-family="Helvetica,sans-Serif" font-size="10.00">settings.h</text>
</a>
</g>
</g>
<!-- Node2&#45;&gt;Node6 -->
<g id="edge5" class="edge"><title>Node2&#45;&gt;Node6</title>
<path fill="none" stroke="midnightblue" d="M1372.73,-196.949C1263.49,-188.733 857.036,-158.164 724.259,-148.178"/>
<polygon fill="midnightblue" stroke="midnightblue" points="724.319,-144.673 714.085,-147.413 723.794,-151.653 724.319,-144.673"/>
</g>
<!-- Node9 -->
<g id="node9" class="node"><title>Node9</title>
<g id="a_node9"><a xlink:href="xml_8h.xhtml" target="_top" xlink:title="XML helper facilities to work with libxml2. ">
<polygon fill="white" stroke="black" points="1433.5,-134.5 1433.5,-153.5 1476.5,-153.5 1476.5,-134.5 1433.5,-134.5"/>
<text text-anchor="middle" x="1455" y="-141.5" font-family="Helvetica,sans-Serif" font-size="10.00">xml.h</text>
</a>
</g>
</g>
<!-- Node2&#45;&gt;Node9 -->
<g id="edge8" class="edge"><title>Node2&#45;&gt;Node9</title>
<path fill="none" stroke="midnightblue" d="M1409.08,-190.083C1417.17,-182.141 1429.2,-170.335 1438.91,-160.797"/>
<polygon fill="midnightblue" stroke="midnightblue" points="1441.4,-163.254 1446.09,-153.751 1436.5,-158.26 1441.4,-163.254"/>
</g>
<!-- Node7 -->
<g id="node7" class="node"><title>Node7</title>
<polygon fill="white" stroke="#bfbfbf" points="657.5,-73 657.5,-92 706.5,-92 706.5,-73 657.5,-73"/>
<text text-anchor="middle" x="682" y="-80" font-family="Helvetica,sans-Serif" font-size="10.00">cstdint</text>
</g>
<!-- Node6&#45;&gt;Node7 -->
<g id="edge6" class="edge"><title>Node6&#45;&gt;Node7</title>
<path fill="none" stroke="midnightblue" d="M682,-134.475C682,-126.08 682,-112.981 682,-102.163"/>
<polygon fill="midnightblue" stroke="midnightblue" points="685.5,-102.009 682,-92.0091 678.5,-102.009 685.5,-102.009"/>
</g>
<!-- Node6&#45;&gt;Node8 -->
<g id="edge7" class="edge"><title>Node6&#45;&gt;Node8</title>
<path fill="none" stroke="midnightblue" d="M660.222,-134.475C634.262,-124.313 590.689,-107.256 561.165,-95.6996"/>
<polygon fill="midnightblue" stroke="midnightblue" points="562.325,-92.3951 551.737,-92.0091 559.774,-98.9135 562.325,-92.3951"/>
</g>
<!-- Node9&#45;&gt;Node3 -->
<g id="edge16" class="edge"><title>Node9&#45;&gt;Node3</title>
<path fill="none" stroke="midnightblue" d="M1433.47,-136.065C1430.32,-135.251 1427.09,-134.525 1424,-134 1350.5,-121.526 805.282,-152.112 754,-98 744.523,-87.9997 744.63,-77.1008 754,-67 797.876,-19.7028 1265.01,-16.4193 1393.47,-16.4163"/>
<polygon fill="midnightblue" stroke="midnightblue" points="1393.82,-19.9165 1403.82,-16.4234 1393.82,-12.9165 1393.82,-19.9165"/>
</g>
<!-- Node9&#45;&gt;Node7 -->
<g id="edge10" class="edge"><title>Node9&#45;&gt;Node7</title>
<path fill="none" stroke="midnightblue" d="M1433.47,-136.058C1430.32,-135.245 1427.09,-134.521 1424,-134 1115.49,-82.0392 1027.39,-161.246 721,-98 717.746,-97.3283 714.402,-96.4297 711.105,-95.4077"/>
<polygon fill="midnightblue" stroke="midnightblue" points="712.091,-92.045 701.496,-92.0738 709.797,-98.6583 712.091,-92.045"/>
</g>
<!-- Node9&#45;&gt;Node8 -->
<g id="edge17" class="edge"><title>Node9&#45;&gt;Node8</title>
<path fill="none" stroke="midnightblue" d="M1433.47,-136.033C1430.32,-135.224 1427.1,-134.507 1424,-134 1050.42,-72.7855 945.187,-167.172 573,-98 569.103,-97.2757 565.077,-96.2761 561.123,-95.1373"/>
<polygon fill="midnightblue" stroke="midnightblue" points="562.148,-91.7906 551.558,-92.0974 560.028,-98.4618 562.148,-91.7906"/>
</g>
<!-- Node10 -->
<g id="node10" class="node"><title>Node10</title>
<polygon fill="white" stroke="#bfbfbf" points="1720.5,-73 1720.5,-92 1767.5,-92 1767.5,-73 1720.5,-73"/>
<text text-anchor="middle" x="1744" y="-80" font-family="Helvetica,sans-Serif" font-size="10.00">cmath</text>
</g>
<!-- Node9&#45;&gt;Node10 -->
<g id="edge9" class="edge"><title>Node9&#45;&gt;Node10</title>
<path fill="none" stroke="midnightblue" d="M1476.65,-140.967C1521.26,-136.392 1626.35,-123.63 1711,-98 1712.93,-97.4152 1714.9,-96.7476 1716.87,-96.0273"/>
<polygon fill="midnightblue" stroke="midnightblue" points="1718.53,-99.1283 1726.48,-92.1271 1715.9,-92.6413 1718.53,-99.1283"/>
</g>
<!-- Node11 -->
<g id="node11" class="node"><title>Node11</title>
<polygon fill="white" stroke="#bfbfbf" points="1785.5,-73 1785.5,-92 1832.5,-92 1832.5,-73 1785.5,-73"/>
<text text-anchor="middle" x="1809" y="-80" font-family="Helvetica,sans-Serif" font-size="10.00">cstdlib</text>
</g>
<!-- Node9&#45;&gt;Node11 -->
<g id="edge11" class="edge"><title>Node9&#45;&gt;Node11</title>
<path fill="none" stroke="midnightblue" d="M1476.84,-142.003C1529.33,-139.166 1666.38,-129.124 1776,-98 1778.15,-97.389 1780.35,-96.6658 1782.53,-95.8738"/>
<polygon fill="midnightblue" stroke="midnightblue" points="1783.91,-99.0924 1791.86,-92.0946 1781.28,-92.6043 1783.91,-99.0924"/>
</g>
<!-- Node12 -->
<g id="node12" class="node"><title>Node12</title>
<polygon fill="white" stroke="#bfbfbf" points="1851,-73 1851,-92 1903,-92 1903,-73 1851,-73"/>
<text text-anchor="middle" x="1877" y="-80" font-family="Helvetica,sans-Serif" font-size="10.00">iterator</text>
</g>
<!-- Node9&#45;&gt;Node12 -->
<g id="edge12" class="edge"><title>Node9&#45;&gt;Node12</title>
<path fill="none" stroke="midnightblue" d="M1476.71,-142.488C1536,-140.661 1705.34,-132.565 1841,-98 1843.51,-97.3595 1846.09,-96.5837 1848.64,-95.7278"/>
<polygon fill="midnightblue" stroke="midnightblue" points="1850.11,-98.9157 1858.26,-92.1464 1847.67,-92.3556 1850.11,-98.9157"/>
</g>
<!-- Node13 -->
<g id="node13" class="node"><title>Node13</title>
<polygon fill="white" stroke="#bfbfbf" points="1921,-73 1921,-92 1963,-92 1963,-73 1921,-73"/>
<text text-anchor="middle" x="1942" y="-80" font-family="Helvetica,sans-Serif" font-size="10.00">limits</text>
</g>
<!-- Node9&#45;&gt;Node13 -->
<g id="edge13" class="edge"><title>Node9&#45;&gt;Node13</title>
<path fill="none" stroke="midnightblue" d="M1476.91,-143.532C1543.64,-144.588 1749.68,-143.656 1912,-98 1913.88,-97.4714 1915.78,-96.8301 1917.68,-96.1151"/>
<polygon fill="midnightblue" stroke="midnightblue" points="1919.08,-99.3211 1926.84,-92.1055 1916.27,-92.9083 1919.08,-99.3211"/>
</g>
<!-- Node9&#45;&gt;Node14 -->
<g id="edge14" class="edge"><title>Node9&#45;&gt;Node14</title>
<path fill="none" stroke="midnightblue" d="M1433.47,-136.044C1430.32,-135.233 1427.1,-134.514 1424,-134 1083.4,-77.4753 985.68,-169.948 648,-98 644.993,-97.3593 641.912,-96.5023 638.873,-95.5237"/>
<polygon fill="midnightblue" stroke="midnightblue" points="640.05,-92.2274 629.456,-92.0994 637.658,-98.806 640.05,-92.2274"/>
</g>
<!-- Node15 -->
<g id="node15" class="node"><title>Node15</title>
<polygon fill="white" stroke="#bfbfbf" points="1981.5,-73 1981.5,-92 2036.5,-92 2036.5,-73 1981.5,-73"/>
<text text-anchor="middle" x="2009" y="-80" font-family="Helvetica,sans-Serif" font-size="10.00">optional</text>
</g>
<!-- Node9&#45;&gt;Node15 -->
<g id="edge15" class="edge"><title>Node9&#45;&gt;Node15</title>
<path fill="none" stroke="midnightblue" d="M1476.52,-143.312C1548.03,-143.887 1783.84,-142.088 1972,-98 1974.83,-97.336 1977.74,-96.497 1980.61,-95.5589"/>
<polygon fill="midnightblue" stroke="midnightblue" points="1981.93,-98.8049 1990.13,-92.0968 1979.54,-92.2267 1981.93,-98.8049"/>
</g>
<!-- Node16 -->
<g id="node16" class="node"><title>Node16</title>
<polygon fill="white" stroke="#bfbfbf" points="763,-73 763,-92 831,-92 831,-73 763,-73"/>
<text text-anchor="middle" x="797" y="-80" font-family="Helvetica,sans-Serif" font-size="10.00">type_traits</text>
</g>
<!-- Node9&#45;&gt;Node16 -->
<g id="edge18" class="edge"><title>Node9&#45;&gt;Node16</title>
<path fill="none" stroke="midnightblue" d="M1433.46,-136.087C1430.31,-135.27 1427.09,-134.537 1424,-134 1167.79,-89.4764 1095.2,-147.98 840,-98 836.11,-97.2382 832.088,-96.2157 828.137,-95.0645"/>
<polygon fill="midnightblue" stroke="midnightblue" points="829.164,-91.7187 818.574,-92.0128 827.036,-98.3874 829.164,-91.7187"/>
</g>
<!-- Node9&#45;&gt;Node17 -->
<g id="edge19" class="edge"><title>Node9&#45;&gt;Node17</title>
<path fill="none" stroke="midnightblue" d="M1476.73,-141.757C1554.13,-137.241 1823.5,-120.769 2045,-98 2057.39,-96.7265 2070.53,-95.1922 2083.27,-93.6051"/>
<polygon fill="midnightblue" stroke="midnightblue" points="2083.91,-97.0522 2093.4,-92.3248 2083.04,-90.1076 2083.91,-97.0522"/>
</g>
<!-- Node18 -->
<g id="node18" class="node"><title>Node18</title>
<polygon fill="white" stroke="#bfbfbf" points="849.5,-67.5 849.5,-97.5 976.5,-97.5 976.5,-67.5 849.5,-67.5"/>
<text text-anchor="start" x="857.5" y="-85.5" font-family="Helvetica,sans-Serif" font-size="10.00">boost/exception/errinfo</text>
<text text-anchor="middle" x="913" y="-74.5" font-family="Helvetica,sans-Serif" font-size="10.00">_errno.hpp</text>
</g>
<!-- Node9&#45;&gt;Node18 -->
<g id="edge20" class="edge"><title>Node9&#45;&gt;Node18</title>
<path fill="none" stroke="midnightblue" d="M1433.45,-136.145C1430.31,-135.319 1427.09,-134.569 1424,-134 1234.67,-99.1196 1180.63,-124.497 986.487,-98.096"/>
<polygon fill="midnightblue" stroke="midnightblue" points="986.92,-94.6226 976.534,-96.714 985.958,-101.556 986.92,-94.6226"/>
</g>
<!-- Node9&#45;&gt;Node19 -->
<g id="edge21" class="edge"><title>Node9&#45;&gt;Node19</title>
<path fill="none" stroke="midnightblue" d="M1476.65,-142.834C1567.18,-141.91 1924.44,-136.005 2228.06,-97.9813"/>
<polygon fill="midnightblue" stroke="midnightblue" points="2228.9,-101.403 2238.38,-96.6732 2228.02,-94.458 2228.9,-101.403"/>
</g>
<!-- Node20 -->
<g id="node20" class="node"><title>Node20</title>
<polygon fill="white" stroke="#bfbfbf" points="994.5,-67.5 994.5,-97.5 1121.5,-97.5 1121.5,-67.5 994.5,-67.5"/>
<text text-anchor="start" x="1002.5" y="-85.5" font-family="Helvetica,sans-Serif" font-size="10.00">boost/exception/errinfo</text>
<text text-anchor="middle" x="1058" y="-74.5" font-family="Helvetica,sans-Serif" font-size="10.00">_file_open_mode.hpp</text>
</g>
<!-- Node9&#45;&gt;Node20 -->
<g id="edge22" class="edge"><title>Node9&#45;&gt;Node20</title>
<path fill="none" stroke="midnightblue" d="M1433.43,-136.259C1430.29,-135.416 1427.07,-134.631 1424,-134 1298.61,-108.269 1262.3,-118.272 1131.64,-98.0096"/>
<polygon fill="midnightblue" stroke="midnightblue" points="1132.08,-94.5349 1121.65,-96.4306 1130.98,-101.449 1132.08,-94.5349"/>
</g>
<!-- Node21 -->
<g id="node21" class="node"><title>Node21</title>
<polygon fill="white" stroke="#bfbfbf" points="1140,-67.5 1140,-97.5 1260,-97.5 1260,-67.5 1140,-67.5"/>
<text text-anchor="start" x="1148" y="-85.5" font-family="Helvetica,sans-Serif" font-size="10.00">boost/iterator/iterator</text>
<text text-anchor="middle" x="1200" y="-74.5" font-family="Helvetica,sans-Serif" font-size="10.00">_facade.hpp</text>
</g>
<!-- Node9&#45;&gt;Node21 -->
<g id="edge23" class="edge"><title>Node9&#45;&gt;Node21</title>
<path fill="none" stroke="midnightblue" d="M1433.37,-136.537C1430.23,-135.654 1427.04,-134.783 1424,-134 1395.33,-126.615 1324.55,-110.804 1270.15,-98.8278"/>
<polygon fill="midnightblue" stroke="midnightblue" points="1270.72,-95.3688 1260.2,-96.6391 1269.22,-102.205 1270.72,-95.3688"/>
</g>
<!-- Node22 -->
<g id="node22" class="node"><title>Node22</title>
<polygon fill="white" stroke="#bfbfbf" points="1278.5,-67.5 1278.5,-97.5 1393.5,-97.5 1393.5,-67.5 1278.5,-67.5"/>
<text text-anchor="start" x="1286.5" y="-85.5" font-family="Helvetica,sans-Serif" font-size="10.00">boost/range/adaptor</text>
<text text-anchor="middle" x="1336" y="-74.5" font-family="Helvetica,sans-Serif" font-size="10.00">/filtered.hpp</text>
</g>
<!-- Node9&#45;&gt;Node22 -->
<g id="edge24" class="edge"><title>Node9&#45;&gt;Node22</title>
<path fill="none" stroke="midnightblue" d="M1437.95,-134.475C1421.08,-126.04 1394.71,-112.855 1373.02,-102.008"/>
<polygon fill="midnightblue" stroke="midnightblue" points="1374.56,-98.8647 1364.05,-97.523 1371.42,-105.126 1374.56,-98.8647"/>
</g>
<!-- Node23 -->
<g id="node23" class="node"><title>Node23</title>
<polygon fill="white" stroke="#bfbfbf" points="1412,-73 1412,-92 1498,-92 1498,-73 1412,-73"/>
<text text-anchor="middle" x="1455" y="-80" font-family="Helvetica,sans-Serif" font-size="10.00">libxml/parser.h</text>
</g>
<!-- Node9&#45;&gt;Node23 -->
<g id="edge25" class="edge"><title>Node9&#45;&gt;Node23</title>
<path fill="none" stroke="midnightblue" d="M1455,-134.475C1455,-126.08 1455,-112.981 1455,-102.163"/>
<polygon fill="midnightblue" stroke="midnightblue" points="1458.5,-102.009 1455,-92.0091 1451.5,-102.009 1458.5,-102.009"/>
</g>
<!-- Node24 -->
<g id="node24" class="node"><title>Node24</title>
<polygon fill="white" stroke="#bfbfbf" points="1516,-73 1516,-92 1608,-92 1608,-73 1516,-73"/>
<text text-anchor="middle" x="1562" y="-80" font-family="Helvetica,sans-Serif" font-size="10.00">libxml/relaxng.h</text>
</g>
<!-- Node9&#45;&gt;Node24 -->
<g id="edge26" class="edge"><title>Node9&#45;&gt;Node24</title>
<path fill="none" stroke="midnightblue" d="M1470.33,-134.475C1487.97,-124.666 1517.16,-108.435 1537.86,-96.925"/>
<polygon fill="midnightblue" stroke="midnightblue" points="1539.66,-99.9279 1546.7,-92.0091 1536.26,-93.8102 1539.66,-99.9279"/>
</g>
<!-- Node25 -->
<g id="node25" class="node"><title>Node25</title>
<polygon fill="white" stroke="#bfbfbf" points="1626,-73 1626,-92 1702,-92 1702,-73 1626,-73"/>
<text text-anchor="middle" x="1664" y="-80" font-family="Helvetica,sans-Serif" font-size="10.00">libxml/tree.h</text>
</g>
<!-- Node9&#45;&gt;Node25 -->
<g id="edge27" class="edge"><title>Node9&#45;&gt;Node25</title>
<path fill="none" stroke="midnightblue" d="M1476.54,-137.224C1507.63,-128.841 1566.86,-112.695 1617,-98 1620.2,-97.0634 1623.51,-96.0756 1626.83,-95.074"/>
<polygon fill="midnightblue" stroke="midnightblue" points="1628.16,-98.3285 1636.7,-92.065 1626.12,-91.6326 1628.16,-98.3285"/>
</g>
<!-- Node9&#45;&gt;Node26 -->
<g id="edge28" class="edge"><title>Node9&#45;&gt;Node26</title>
<path fill="none" stroke="midnightblue" d="M1433.47,-136.022C1430.32,-135.214 1427.1,-134.501 1424,-134 1218.08,-100.672 689.285,-144.779 486,-98 483.633,-97.4553 481.225,-96.7425 478.843,-95.9251"/>
<polygon fill="midnightblue" stroke="midnightblue" points="479.954,-92.5999 469.37,-92.1384 477.356,-99.0999 479.954,-92.5999"/>
</g>
<!-- Node26&#45;&gt;Node3 -->
<g id="edge30" class="edge"><title>Node26&#45;&gt;Node3</title>
<path fill="none" stroke="midnightblue" d="M469.382,-72.9145C474.562,-70.5819 480.399,-68.334 486,-67 663.8,-24.6494 1248.49,-17.7529 1393.32,-16.6865"/>
<polygon fill="midnightblue" stroke="midnightblue" points="1393.76,-20.1837 1403.73,-16.6145 1393.71,-13.1838 1393.76,-20.1837"/>
</g>
<!-- Node27 -->
<g id="node27" class="node"><title>Node27</title>
<polygon fill="white" stroke="#bfbfbf" points="582.5,-6 582.5,-25 645.5,-25 645.5,-6 582.5,-6"/>
<text text-anchor="middle" x="614" y="-13" font-family="Helvetica,sans-Serif" font-size="10.00">exception</text>
</g>
<!-- Node26&#45;&gt;Node27 -->
<g id="edge29" class="edge"><title>Node26&#45;&gt;Node27</title>
<path fill="none" stroke="midnightblue" d="M472.142,-72.9415C476.671,-70.9574 481.495,-68.8778 486,-67 518.653,-53.3907 556.359,-38.6286 582.346,-28.6011"/>
<polygon fill="midnightblue" stroke="midnightblue" points="583.622,-31.8604 591.697,-25.002 581.107,-25.3276 583.622,-31.8604"/>
</g>
<!-- Node28 -->
<g id="node28" class="node"><title>Node28</title>
<polygon fill="white" stroke="#bfbfbf" points="664,-6 664,-25 810,-25 810,-6 664,-6"/>
<text text-anchor="middle" x="737" y="-13" font-family="Helvetica,sans-Serif" font-size="10.00">boost/current_function.hpp</text>
</g>
<!-- Node26&#45;&gt;Node28 -->
<g id="edge31" class="edge"><title>Node26&#45;&gt;Node28</title>
<path fill="none" stroke="midnightblue" d="M470.541,-72.9563C475.461,-70.7914 480.869,-68.6226 486,-67 521.028,-55.9235 615.468,-38.0966 677.993,-26.8546"/>
<polygon fill="midnightblue" stroke="midnightblue" points="678.896,-30.2486 688.123,-25.0406 677.662,-23.3582 678.896,-30.2486"/>
</g>
<!-- Node29 -->
<g id="node29" class="node"><title>Node29</title>
<polygon fill="white" stroke="#bfbfbf" points="0,-6 0,-25 164,-25 164,-6 0,-6"/>
<text text-anchor="middle" x="82" y="-13" font-family="Helvetica,sans-Serif" font-size="10.00">boost/exception/exception.hpp</text>
</g>
<!-- Node26&#45;&gt;Node29 -->
<g id="edge32" class="edge"><title>Node26&#45;&gt;Node29</title>
<path fill="none" stroke="midnightblue" d="M428.944,-77.2853C371.218,-67.1716 223.505,-41.2919 140.636,-26.7731"/>
<polygon fill="midnightblue" stroke="midnightblue" points="141.07,-23.296 130.616,-25.0176 139.862,-30.1909 141.07,-23.296"/>
</g>
<!-- Node30 -->
<g id="node30" class="node"><title>Node30</title>
<polygon fill="white" stroke="#bfbfbf" points="182,-6 182,-25 316,-25 316,-6 182,-6"/>
<text text-anchor="middle" x="249" y="-13" font-family="Helvetica,sans-Serif" font-size="10.00">boost/exception/info.hpp</text>
</g>
<!-- Node26&#45;&gt;Node30 -->
<g id="edge33" class="edge"><title>Node26&#45;&gt;Node30</title>
<path fill="none" stroke="midnightblue" d="M428.797,-73.7884C393.306,-62.48 326.877,-41.3137 285.458,-28.1166"/>
<polygon fill="midnightblue" stroke="midnightblue" points="286.345,-24.7259 275.755,-25.0247 284.22,-31.3955 286.345,-24.7259"/>
</g>
<!-- Node31 -->
<g id="node31" class="node"><title>Node31</title>
<polygon fill="white" stroke="#bfbfbf" points="334.5,-0.5 334.5,-30.5 447.5,-30.5 447.5,-0.5 334.5,-0.5"/>
<text text-anchor="start" x="342.5" y="-18.5" font-family="Helvetica,sans-Serif" font-size="10.00">boost/exception/info</text>
<text text-anchor="middle" x="391" y="-7.5" font-family="Helvetica,sans-Serif" font-size="10.00">_tuple.hpp</text>
</g>
<!-- Node26&#45;&gt;Node31 -->
<g id="edge34" class="edge"><title>Node26&#45;&gt;Node31</title>
<path fill="none" stroke="midnightblue" d="M444.638,-72.7338C436.179,-63.8649 422.774,-49.8111 411.481,-37.9722"/>
<polygon fill="midnightblue" stroke="midnightblue" points="413.874,-35.4094 404.439,-30.589 408.808,-40.2409 413.874,-35.4094"/>
</g>
<!-- Node32 -->
<g id="node32" class="node"><title>Node32</title>
<g id="a_node32"><a xlink:href="source__info_8h.xhtml" target="_top" xlink:title="Helper facilities to get source file information. ">
<polygon fill="white" stroke="black" points="466,-6 466,-25 564,-25 564,-6 466,-6"/>
<text text-anchor="middle" x="515" y="-13" font-family="Helvetica,sans-Serif" font-size="10.00">ext/source_info.h</text>
</a>
</g>
</g>
<!-- Node26&#45;&gt;Node32 -->
<g id="edge35" class="edge"><title>Node26&#45;&gt;Node32</title>
<path fill="none" stroke="midnightblue" d="M461.362,-72.7338C471.123,-62.5004 487.468,-45.3642 499.555,-32.6924"/>
<polygon fill="midnightblue" stroke="midnightblue" points="502.401,-34.7792 506.771,-25.1273 497.336,-29.9477 502.401,-34.7792"/>
</g>
<!-- Node37&#45;&gt;Node3 -->
<g id="edge45" class="edge"><title>Node37&#45;&gt;Node3</title>
<path fill="none" stroke="midnightblue" d="M2313.1,-137.972C2332.76,-132.046 2360.93,-120.08 2374,-98 2381.02,-86.1435 2383.48,-76.9981 2374,-67 2341.82,-33.0578 1621.11,-19.6005 1458.43,-16.9897"/>
<polygon fill="midnightblue" stroke="midnightblue" points="1458.17,-13.4852 1448.11,-16.8267 1458.06,-20.4843 1458.17,-13.4852"/>
</g>
</g>
</svg>
        <g id="navigator" transform="translate(0 0)" fill="#404254">
                <rect fill="#f2f5e9" fill-opacity="0.5" stroke="#606060" stroke-width=".5" x="0" y="0" width="60" height="60"/>
                <use id="zoomplus" xlink:href="#zoomPlus" x="17" y="9" onmousedown="handleZoom(evt,'in')"/>
                <use id="zoomminus" xlink:href="#zoomMin" x="42" y="9" onmousedown="handleZoom(evt,'out')"/>
                <use id="reset" xlink:href="#resetDef" x="30" y="36" onmousedown="handleReset()"/>
                <g id="arrowUp" xlink:href="#dirArrow" transform="translate(30 24)" onmousedown="handlePan(0,-1)">
                  <use xlink:href="#rim" fill="#404040">
                        <set attributeName="fill" to="#808080" begin="arrowUp.mouseover" end="arrowUp.mouseout"/>
                  </use>
                  <path fill="none" stroke="white" stroke-width="1.5" d="M0,-3.0v7 M-2.5,-0.5L0,-3.0L2.5,-0.5"/>
                </g>
                <g id="arrowRight" xlink:href="#dirArrow" transform="rotate(90) translate(36 -43)" onmousedown="handlePan(1,0)">
                  <use xlink:href="#rim" fill="#404040">
                        <set attributeName="fill" to="#808080" begin="arrowRight.mouseover" end="arrowRight.mouseout"/>
                  </use>
                  <path fill="none" stroke="white" stroke-width="1.5" d="M0,-3.0v7 M-2.5,-0.5L0,-3.0L2.5,-0.5"/>
                </g>
                <g id="arrowDown" xlink:href="#dirArrow" transform="rotate(180) translate(-30 -48)" onmousedown="handlePan(0,1)">
                  <use xlink:href="#rim" fill="#404040">
                        <set attributeName="fill" to="#808080" begin="arrowDown.mouseover" end="arrowDown.mouseout"/>
                  </use>
                  <path fill="none" stroke="white" stroke-width="1.5" d="M0,-3.0v7 M-2.5,-0.5L0,-3.0L2.5,-0.5"/>
                </g>
                <g id="arrowLeft" xlink:href="#dirArrow" transform="rotate(270) translate(-36 17)" onmousedown="handlePan(-1,0)">
                  <use xlink:href="#rim" fill="#404040">
                        <set attributeName="fill" to="#808080" begin="arrowLeft.mouseover" end="arrowLeft.mouseout"/>
                  </use>
                  <path fill="none" stroke="white" stroke-width="1.5" d="M0,-3.0v7 M-2.5,-0.5L0,-3.0L2.5,-0.5"/>
                </g>
        </g>
        <svg viewBox="0 0 15 15" width="100%" height="30px" preserveAspectRatio="xMaxYMin meet">
         <g id="arrow_out" transform="scale(0.3 0.3)">
          <a xlink:href="config_8cc__incl_org.svg" target="_base">
           <rect id="button" ry="5" rx="5" y="6" x="6" height="38" width="38"
                fill="#f2f5e9" fill-opacity="0.5" stroke="#606060" stroke-width="1.0"/>
           <path id="arrow"
             d="M 11.500037,31.436501 C 11.940474,20.09759 22.043105,11.32322 32.158766,21.979434 L 37.068811,17.246167 C 37.068811,17.246167 37.088388,32 37.088388,32 L 22.160133,31.978069 C 22.160133,31.978069 26.997745,27.140456 26.997745,27.140456 C 18.528582,18.264221 13.291696,25.230495 11.500037,31.436501 z"
             style="fill:#404040;"/>
          </a>
         </g>
        </svg>
</svg>
