<?xml version="1.0" encoding="UTF-8" standalone="no"?>
<!DOCTYPE svg PUBLIC "-//W3C//DTD SVG 1.1//EN"
 "http://www.w3.org/Graphics/SVG/1.1/DTD/svg11.dtd">
<!-- Generated by graphviz version 2.38.0 (20140413.2041)
 -->
<!-- Title: %3 Pages: 1 -->
<svg width="1670pt" height="1124pt"
 viewBox="0.00 0.00 1669.64 1124.00" xmlns="http://www.w3.org/2000/svg" xmlns:xlink="http://www.w3.org/1999/xlink">
<g id="graph0" class="graph" transform="scale(1 1) rotate(0) translate(4 1120)">
<title>%3</title>
<polygon fill="white" stroke="none" points="-4,4 -4,-1120 1665.64,-1120 1665.64,4 -4,4"/>
<!-- bdd -->
<g id="node1" class="node"><title>bdd</title>
<ellipse fill="none" stroke="black" cx="580" cy="-738" rx="28.6953" ry="18"/>
<text text-anchor="middle" x="580" y="-734.3" font-family="Times,serif" font-size="14.00">bdd</text>
</g>
<!-- settings -->
<g id="node23" class="node"><title>settings</title>
<ellipse fill="none" stroke="black" cx="171" cy="-522" rx="48.1917" ry="18"/>
<text text-anchor="middle" x="171" y="-518.3" font-family="Times,serif" font-size="14.00">settings</text>
</g>
<!-- bdd&#45;&gt;settings -->
<g id="edge3" class="edge"><title>bdd&#45;&gt;settings</title>
<path fill="none" stroke="black" d="M558.586,-725.796C492.273,-691.099 289.805,-585.162 206.935,-541.802"/>
<polygon fill="black" stroke="black" points="208.384,-538.61 197.901,-537.075 205.139,-544.813 208.384,-538.61"/>
</g>
<!-- pdag -->
<g id="node36" class="node"><title>pdag</title>
<ellipse fill="none" stroke="black" cx="846" cy="-594" rx="33.5952" ry="18"/>
<text text-anchor="middle" x="846" y="-590.3" font-family="Times,serif" font-size="14.00">pdag</text>
</g>
<!-- bdd&#45;&gt;pdag -->
<g id="edge1" class="edge"><title>bdd&#45;&gt;pdag</title>
<path fill="none" stroke="black" d="M595.726,-722.643C617.389,-703.476 658.26,-669.455 698,-648 732.846,-629.187 775.737,-614.674 806.358,-605.63"/>
<polygon fill="black" stroke="black" points="807.607,-608.912 816.243,-602.774 805.664,-602.187 807.607,-608.912"/>
</g>
<!-- zbdd -->
<g id="node47" class="node"><title>zbdd</title>
<ellipse fill="none" stroke="black" cx="740" cy="-666" rx="33.2948" ry="18"/>
<text text-anchor="middle" x="740" y="-662.3" font-family="Times,serif" font-size="14.00">zbdd</text>
</g>
<!-- bdd&#45;&gt;zbdd -->
<g id="edge2" class="edge"><title>bdd&#45;&gt;zbdd</title>
<path fill="none" stroke="black" d="M600.922,-725.597C627.058,-713.274 671.815,-693.646 703.574,-680.545"/>
<polygon fill="black" stroke="black" points="705.044,-683.726 712.978,-676.705 702.397,-677.246 705.044,-683.726"/>
</g>
<!-- element -->
<g id="node2" class="node"><title>element</title>
<ellipse fill="none" stroke="black" cx="784" cy="-234" rx="48.1917" ry="18"/>
<text text-anchor="middle" x="784" y="-230.3" font-family="Times,serif" font-size="14.00">element</text>
</g>
<!-- error -->
<g id="node14" class="node"><title>error</title>
<ellipse fill="none" stroke="black" cx="395" cy="-90" rx="34.394" ry="18"/>
<text text-anchor="middle" x="395" y="-86.3" font-family="Times,serif" font-size="14.00">error</text>
</g>
<!-- element&#45;&gt;error -->
<g id="edge4" class="edge"><title>element&#45;&gt;error</title>
<path fill="none" stroke="black" d="M781.729,-215.895C778.043,-195.386 768.721,-161.582 746,-144 698.908,-107.56 522.922,-95.9345 439.458,-92.4242"/>
<polygon fill="black" stroke="black" points="439.406,-88.9194 429.274,-92.017 439.127,-95.9138 439.406,-88.9194"/>
</g>
<!-- probability_analysis -->
<g id="node3" class="node"><title>probability_analysis</title>
<ellipse fill="none" stroke="black" cx="907" cy="-810" rx="103.982" ry="18"/>
<text text-anchor="middle" x="907" y="-806.3" font-family="Times,serif" font-size="14.00">probability_analysis</text>
</g>
<!-- fault_tree_analysis -->
<g id="node10" class="node"><title>fault_tree_analysis</title>
<ellipse fill="none" stroke="black" cx="887" cy="-738" rx="98.5829" ry="18"/>
<text text-anchor="middle" x="887" y="-734.3" font-family="Times,serif" font-size="14.00">fault_tree_analysis</text>
</g>
<!-- probability_analysis&#45;&gt;fault_tree_analysis -->
<g id="edge5" class="edge"><title>probability_analysis&#45;&gt;fault_tree_analysis</title>
<path fill="none" stroke="black" d="M902.056,-791.697C899.828,-783.898 897.145,-774.509 894.665,-765.829"/>
<polygon fill="black" stroke="black" points="898,-764.758 891.887,-756.104 891.269,-766.681 898,-764.758"/>
</g>
<!-- version -->
<g id="node4" class="node"><title>version</title>
<ellipse fill="none" stroke="black" cx="982" cy="-954" rx="44.6926" ry="18"/>
<text text-anchor="middle" x="982" y="-950.3" font-family="Times,serif" font-size="14.00">version</text>
</g>
<!-- expression/numerical -->
<g id="node5" class="node"><title>expression/numerical</title>
<ellipse fill="none" stroke="black" cx="1156" cy="-306" rx="110.48" ry="18"/>
<text text-anchor="middle" x="1156" y="-302.3" font-family="Times,serif" font-size="14.00">expression/numerical</text>
</g>
<!-- expression/constant -->
<g id="node37" class="node"><title>expression/constant</title>
<ellipse fill="none" stroke="black" cx="1092" cy="-234" rx="104.782" ry="18"/>
<text text-anchor="middle" x="1092" y="-230.3" font-family="Times,serif" font-size="14.00">expression/constant</text>
</g>
<!-- expression/numerical&#45;&gt;expression/constant -->
<g id="edge6" class="edge"><title>expression/numerical&#45;&gt;expression/constant</title>
<path fill="none" stroke="black" d="M1140.51,-288.055C1132.76,-279.583 1123.24,-269.168 1114.69,-259.815"/>
<polygon fill="black" stroke="black" points="1117.13,-257.294 1107.79,-252.275 1111.96,-262.017 1117.13,-257.294"/>
</g>
<!-- event -->
<g id="node6" class="node"><title>event</title>
<ellipse fill="none" stroke="black" cx="784" cy="-306" rx="36.2938" ry="18"/>
<text text-anchor="middle" x="784" y="-302.3" font-family="Times,serif" font-size="14.00">event</text>
</g>
<!-- event&#45;&gt;element -->
<g id="edge7" class="edge"><title>event&#45;&gt;element</title>
<path fill="none" stroke="black" d="M784,-287.697C784,-279.983 784,-270.712 784,-262.112"/>
<polygon fill="black" stroke="black" points="787.5,-262.104 784,-252.104 780.5,-262.104 787.5,-262.104"/>
</g>
<!-- expression -->
<g id="node21" class="node"><title>expression</title>
<ellipse fill="none" stroke="black" cx="676" cy="-162" rx="61.1893" ry="18"/>
<text text-anchor="middle" x="676" y="-158.3" font-family="Times,serif" font-size="14.00">expression</text>
</g>
<!-- event&#45;&gt;expression -->
<g id="edge8" class="edge"><title>event&#45;&gt;expression</title>
<path fill="none" stroke="black" d="M765.438,-290.247C753.574,-280.244 738.343,-266.287 727,-252 711.441,-232.403 697.598,-207.507 688.274,-189.033"/>
<polygon fill="black" stroke="black" points="691.39,-187.437 683.825,-180.019 685.113,-190.535 691.39,-187.437"/>
</g>
<!-- logger -->
<g id="node7" class="node"><title>logger</title>
<ellipse fill="none" stroke="black" cx="311" cy="-162" rx="40.0939" ry="18"/>
<text text-anchor="middle" x="311" y="-158.3" font-family="Times,serif" font-size="14.00">logger</text>
</g>
<!-- Boost -->
<g id="node13" class="node"><title>Boost</title>
<ellipse fill="none" stroke="black" cx="323" cy="-18" rx="37.0935" ry="18"/>
<text text-anchor="middle" x="323" y="-14.3" font-family="Times,serif" font-size="14.00">Boost</text>
</g>
<!-- logger&#45;&gt;Boost -->
<g id="edge10" class="edge"><title>logger&#45;&gt;Boost</title>
<path fill="none" stroke="black" d="M312.447,-143.871C314.493,-119.67 318.25,-75.2108 320.685,-46.3932"/>
<polygon fill="black" stroke="black" points="324.193,-46.4485 321.547,-36.1893 317.218,-45.859 324.193,-46.4485"/>
</g>
<!-- STL -->
<g id="node28" class="node"><title>STL</title>
<ellipse fill="none" stroke="black" cx="239" cy="-18" rx="28.6953" ry="18"/>
<text text-anchor="middle" x="239" y="-14.3" font-family="Times,serif" font-size="14.00">STL</text>
</g>
<!-- logger&#45;&gt;STL -->
<g id="edge9" class="edge"><title>logger&#45;&gt;STL</title>
<path fill="none" stroke="black" d="M302.555,-144.261C293.524,-126.367 278.773,-97.1664 266,-72 261.401,-62.9383 256.348,-53.0118 251.87,-44.2243"/>
<polygon fill="black" stroke="black" points="254.945,-42.55 247.285,-35.2308 248.709,-45.7295 254.945,-42.55"/>
</g>
<!-- expression/test_event -->
<g id="node8" class="node"><title>expression/test_event</title>
<ellipse fill="none" stroke="black" cx="1358" cy="-450" rx="112.38" ry="18"/>
<text text-anchor="middle" x="1358" y="-446.3" font-family="Times,serif" font-size="14.00">expression/test_event</text>
</g>
<!-- expression/test_event&#45;&gt;expression -->
<g id="edge11" class="edge"><title>expression/test_event&#45;&gt;expression</title>
<path fill="none" stroke="black" d="M1353.4,-431.805C1340,-385.703 1296.1,-259.877 1206,-216 1126.95,-177.507 872.916,-166.956 747.464,-164.075"/>
<polygon fill="black" stroke="black" points="747.27,-160.57 737.195,-163.85 747.116,-167.569 747.27,-160.57"/>
</g>
<!-- serialization -->
<g id="node9" class="node"><title>serialization</title>
<ellipse fill="none" stroke="black" cx="1369" cy="-594" rx="67.6881" ry="18"/>
<text text-anchor="middle" x="1369" y="-590.3" font-family="Times,serif" font-size="14.00">serialization</text>
</g>
<!-- xml_stream -->
<g id="node12" class="node"><title>xml_stream</title>
<ellipse fill="none" stroke="black" cx="1596" cy="-522" rx="65.7887" ry="18"/>
<text text-anchor="middle" x="1596" y="-518.3" font-family="Times,serif" font-size="14.00">xml_stream</text>
</g>
<!-- serialization&#45;&gt;xml_stream -->
<g id="edge13" class="edge"><title>serialization&#45;&gt;xml_stream</title>
<path fill="none" stroke="black" d="M1411.43,-579.916C1449.13,-568.29 1504.33,-551.268 1544.54,-538.869"/>
<polygon fill="black" stroke="black" points="1545.64,-542.193 1554.16,-535.902 1543.57,-535.504 1545.64,-542.193"/>
</g>
<!-- expression/exponential -->
<g id="node17" class="node"><title>expression/exponential</title>
<ellipse fill="none" stroke="black" cx="1394" cy="-522" rx="118.079" ry="18"/>
<text text-anchor="middle" x="1394" y="-518.3" font-family="Times,serif" font-size="14.00">expression/exponential</text>
</g>
<!-- serialization&#45;&gt;expression/exponential -->
<g id="edge14" class="edge"><title>serialization&#45;&gt;expression/exponential</title>
<path fill="none" stroke="black" d="M1375.05,-576.055C1377.87,-568.176 1381.28,-558.617 1384.43,-549.794"/>
<polygon fill="black" stroke="black" points="1387.76,-550.87 1387.83,-540.275 1381.17,-548.516 1387.76,-550.87"/>
</g>
<!-- model -->
<g id="node27" class="node"><title>model</title>
<ellipse fill="none" stroke="black" cx="964" cy="-522" rx="38.9931" ry="18"/>
<text text-anchor="middle" x="964" y="-518.3" font-family="Times,serif" font-size="14.00">model</text>
</g>
<!-- serialization&#45;&gt;model -->
<g id="edge12" class="edge"><title>serialization&#45;&gt;model</title>
<path fill="none" stroke="black" d="M1313.96,-583.487C1233.4,-569.563 1084.84,-543.885 1009.85,-530.925"/>
<polygon fill="black" stroke="black" points="1010.22,-527.437 999.773,-529.183 1009.03,-534.335 1010.22,-527.437"/>
</g>
<!-- analysis -->
<g id="node42" class="node"><title>analysis</title>
<ellipse fill="none" stroke="black" cx="963" cy="-594" rx="48.1917" ry="18"/>
<text text-anchor="middle" x="963" y="-590.3" font-family="Times,serif" font-size="14.00">analysis</text>
</g>
<!-- fault_tree_analysis&#45;&gt;analysis -->
<g id="edge15" class="edge"><title>fault_tree_analysis&#45;&gt;analysis</title>
<path fill="none" stroke="black" d="M910.816,-720.424C922.539,-711.048 935.865,-698.339 944,-684 954.753,-665.045 959.434,-640.68 961.465,-622.236"/>
<polygon fill="black" stroke="black" points="964.963,-622.422 962.381,-612.147 957.991,-621.79 964.963,-622.422"/>
</g>
<!-- preprocessor -->
<g id="node46" class="node"><title>preprocessor</title>
<ellipse fill="none" stroke="black" cx="863" cy="-666" rx="72.2875" ry="18"/>
<text text-anchor="middle" x="863" y="-662.3" font-family="Times,serif" font-size="14.00">preprocessor</text>
</g>
<!-- fault_tree_analysis&#45;&gt;preprocessor -->
<g id="edge17" class="edge"><title>fault_tree_analysis&#45;&gt;preprocessor</title>
<path fill="none" stroke="black" d="M881.067,-719.697C878.394,-711.898 875.174,-702.509 872.199,-693.829"/>
<polygon fill="black" stroke="black" points="875.418,-692.429 868.864,-684.104 868.797,-694.699 875.418,-692.429"/>
</g>
<!-- fault_tree_analysis&#45;&gt;zbdd -->
<g id="edge16" class="edge"><title>fault_tree_analysis&#45;&gt;zbdd</title>
<path fill="none" stroke="black" d="M853.275,-720.941C829.329,-709.538 797.323,-694.297 773.441,-682.924"/>
<polygon fill="black" stroke="black" points="774.931,-679.757 764.398,-678.618 771.922,-686.077 774.931,-679.757"/>
</g>
<!-- expression/conditional -->
<g id="node11" class="node"><title>expression/conditional</title>
<ellipse fill="none" stroke="black" cx="450" cy="-234" rx="115.88" ry="18"/>
<text text-anchor="middle" x="450" y="-230.3" font-family="Times,serif" font-size="14.00">expression/conditional</text>
</g>
<!-- expression/conditional&#45;&gt;expression -->
<g id="edge18" class="edge"><title>expression/conditional&#45;&gt;expression</title>
<path fill="none" stroke="black" d="M499.597,-217.638C537.049,-206.038 588.241,-190.182 625.833,-178.539"/>
<polygon fill="black" stroke="black" points="627.048,-181.826 635.565,-175.524 624.977,-175.14 627.048,-181.826"/>
</g>
<!-- xml_stream&#45;&gt;error -->
<g id="edge19" class="edge"><title>xml_stream&#45;&gt;error</title>
<path fill="none" stroke="black" d="M1591.95,-503.622C1586.11,-476.967 1576,-424.311 1576,-379 1576,-379 1576,-379 1576,-233 1576,-116.291 655.1,-94.9735 439.686,-91.5835"/>
<polygon fill="black" stroke="black" points="439.44,-88.0794 429.388,-91.4268 439.333,-95.0786 439.44,-88.0794"/>
</g>
<!-- error&#45;&gt;Boost -->
<g id="edge22" class="edge"><title>error&#45;&gt;Boost</title>
<path fill="none" stroke="black" d="M379.377,-73.811C369.792,-64.4924 357.334,-52.3799 346.567,-41.9121"/>
<polygon fill="black" stroke="black" points="348.701,-39.1053 339.091,-34.644 343.821,-44.1243 348.701,-39.1053"/>
</g>
<!-- error&#45;&gt;STL -->
<g id="edge20" class="edge"><title>error&#45;&gt;STL</title>
<path fill="none" stroke="black" d="M369.589,-77.5975C342.75,-65.5545 300.363,-46.5346 271.201,-33.4492"/>
<polygon fill="black" stroke="black" points="272.416,-30.1584 261.86,-29.2577 269.551,-36.5449 272.416,-30.1584"/>
</g>
<!-- ext -->
<g id="node34" class="node"><title>ext</title>
<ellipse fill="none" stroke="black" cx="405" cy="-18" rx="27" ry="18"/>
<text text-anchor="middle" x="405" y="-14.3" font-family="Times,serif" font-size="14.00">ext</text>
</g>
<!-- error&#45;&gt;ext -->
<g id="edge21" class="edge"><title>error&#45;&gt;ext</title>
<path fill="none" stroke="black" d="M397.472,-71.6966C398.574,-63.9827 399.898,-54.7125 401.127,-46.1124"/>
<polygon fill="black" stroke="black" points="404.607,-46.4988 402.557,-36.1043 397.677,-45.5088 404.607,-46.4988"/>
</g>
<!-- expression/extern -->
<g id="node15" class="node"><title>expression/extern</title>
<ellipse fill="none" stroke="black" cx="933" cy="-306" rx="94.4839" ry="18"/>
<text text-anchor="middle" x="933" y="-302.3" font-family="Times,serif" font-size="14.00">expression/extern</text>
</g>
<!-- expression/extern&#45;&gt;element -->
<g id="edge23" class="edge"><title>expression/extern&#45;&gt;element</title>
<path fill="none" stroke="black" d="M899.19,-289.116C876.146,-278.29 845.612,-263.945 821.77,-252.744"/>
<polygon fill="black" stroke="black" points="823.202,-249.55 812.663,-248.466 820.225,-255.886 823.202,-249.55"/>
</g>
<!-- expression/extern&#45;&gt;expression -->
<g id="edge24" class="edge"><title>expression/extern&#45;&gt;expression</title>
<path fill="none" stroke="black" d="M919.508,-287.838C902.991,-267.907 873.216,-235.303 841,-216 808.489,-196.52 768.022,-183.378 735.3,-175.053"/>
<polygon fill="black" stroke="black" points="735.958,-171.611 725.411,-172.623 734.287,-178.409 735.958,-171.611"/>
</g>
<!-- importance_analysis -->
<g id="node16" class="node"><title>importance_analysis</title>
<ellipse fill="none" stroke="black" cx="1080" cy="-882" rx="106.681" ry="18"/>
<text text-anchor="middle" x="1080" y="-878.3" font-family="Times,serif" font-size="14.00">importance_analysis</text>
</g>
<!-- importance_analysis&#45;&gt;probability_analysis -->
<g id="edge25" class="edge"><title>importance_analysis&#45;&gt;probability_analysis</title>
<path fill="none" stroke="black" d="M1040.74,-865.116C1015.44,-854.877 982.353,-841.49 955.421,-830.592"/>
<polygon fill="black" stroke="black" points="956.385,-827.207 945.803,-826.701 953.76,-833.696 956.385,-827.207"/>
</g>
<!-- expression/exponential&#45;&gt;expression -->
<g id="edge26" class="edge"><title>expression/exponential&#45;&gt;expression</title>
<path fill="none" stroke="black" d="M1433.37,-504.922C1449.83,-496.299 1467.71,-484.087 1479,-468 1502.23,-434.889 1498,-419.447 1498,-379 1498,-379 1498,-379 1498,-305 1498,-185.382 1360.86,-241.524 1244,-216 1068.01,-177.563 855.38,-166.99 747.009,-164.09"/>
<polygon fill="black" stroke="black" points="746.937,-160.587 736.852,-163.832 746.76,-167.585 746.937,-160.587"/>
</g>
<!-- event_tree -->
<g id="node18" class="node"><title>event_tree</title>
<ellipse fill="none" stroke="black" cx="828" cy="-450" rx="60.3893" ry="18"/>
<text text-anchor="middle" x="828" y="-446.3" font-family="Times,serif" font-size="14.00">event_tree</text>
</g>
<!-- instruction -->
<g id="node20" class="node"><title>instruction</title>
<ellipse fill="none" stroke="black" cx="962" cy="-378" rx="61.99" ry="18"/>
<text text-anchor="middle" x="962" y="-374.3" font-family="Times,serif" font-size="14.00">instruction</text>
</g>
<!-- event_tree&#45;&gt;instruction -->
<g id="edge27" class="edge"><title>event_tree&#45;&gt;instruction</title>
<path fill="none" stroke="black" d="M856.746,-433.983C876.441,-423.695 902.767,-409.942 924.164,-398.765"/>
<polygon fill="black" stroke="black" points="926.058,-401.724 933.301,-393.992 922.817,-395.52 926.058,-401.724"/>
</g>
<!-- xml -->
<g id="node19" class="node"><title>xml</title>
<ellipse fill="none" stroke="black" cx="77" cy="-522" rx="27.8951" ry="18"/>
<text text-anchor="middle" x="77" y="-518.3" font-family="Times,serif" font-size="14.00">xml</text>
</g>
<!-- xml&#45;&gt;error -->
<g id="edge28" class="edge"><title>xml&#45;&gt;error</title>
<path fill="none" stroke="black" d="M95.8081,-508.626C108.814,-499.07 125.437,-484.687 135,-468 155.11,-432.907 154,-419.447 154,-379 154,-379 154,-379 154,-233 154,-186.266 172.629,-172.063 210,-144 251.535,-112.81 310.851,-99.9566 351.033,-94.6711"/>
<polygon fill="black" stroke="black" points="351.561,-98.1329 361.067,-93.4557 350.719,-91.1836 351.561,-98.1329"/>
</g>
<!-- LibXML -->
<g id="node32" class="node"><title>LibXML</title>
<ellipse fill="none" stroke="black" cx="77" cy="-450" rx="48.9926" ry="18"/>
<text text-anchor="middle" x="77" y="-446.3" font-family="Times,serif" font-size="14.00">LibXML</text>
</g>
<!-- xml&#45;&gt;LibXML -->
<g id="edge29" class="edge"><title>xml&#45;&gt;LibXML</title>
<path fill="none" stroke="black" d="M77,-503.697C77,-495.983 77,-486.712 77,-478.112"/>
<polygon fill="black" stroke="black" points="80.5001,-478.104 77,-468.104 73.5001,-478.104 80.5001,-478.104"/>
</g>
<!-- instruction&#45;&gt;event -->
<g id="edge30" class="edge"><title>instruction&#45;&gt;event</title>
<path fill="none" stroke="black" d="M926.833,-363.17C896.298,-351.162 852.22,-333.828 821.123,-321.599"/>
<polygon fill="black" stroke="black" points="822.104,-318.224 811.517,-317.821 819.542,-324.738 822.104,-318.224"/>
</g>
<!-- expression&#45;&gt;error -->
<g id="edge31" class="edge"><title>expression&#45;&gt;error</title>
<path fill="none" stroke="black" d="M630.852,-149.753C576.747,-136.275 486.922,-113.899 435.141,-101"/>
<polygon fill="black" stroke="black" points="435.863,-97.5726 425.314,-98.5515 434.171,-104.365 435.863,-97.5726"/>
</g>
<!-- event_tree_analysis -->
<g id="node22" class="node"><title>event_tree_analysis</title>
<ellipse fill="none" stroke="black" cx="1210" cy="-666" rx="102.882" ry="18"/>
<text text-anchor="middle" x="1210" y="-662.3" font-family="Times,serif" font-size="14.00">event_tree_analysis</text>
</g>
<!-- event_tree_analysis&#45;&gt;expression/numerical -->
<g id="edge32" class="edge"><title>event_tree_analysis&#45;&gt;expression/numerical</title>
<path fill="none" stroke="black" d="M1209.9,-647.823C1209.42,-591.689 1206.52,-414.162 1189,-360 1185.91,-350.457 1180.75,-340.888 1175.41,-332.56"/>
<polygon fill="black" stroke="black" points="1178.15,-330.371 1169.64,-324.068 1172.36,-334.306 1178.15,-330.371"/>
</g>
<!-- event_tree_analysis&#45;&gt;expression/test_event -->
<g id="edge34" class="edge"><title>event_tree_analysis&#45;&gt;expression/test_event</title>
<path fill="none" stroke="black" d="M1212.13,-647.816C1216.85,-616.126 1230.78,-547.727 1267,-504 1278.01,-490.708 1293.28,-480.012 1308.16,-471.805"/>
<polygon fill="black" stroke="black" points="1310.09,-474.745 1317.34,-467.015 1306.85,-468.539 1310.09,-474.745"/>
</g>
<!-- event_tree_analysis&#45;&gt;event_tree -->
<g id="edge33" class="edge"><title>event_tree_analysis&#45;&gt;event_tree</title>
<path fill="none" stroke="black" d="M1193.94,-647.997C1162.22,-615.372 1087.98,-543.708 1012,-504 1000.23,-497.847 931.421,-478.715 881.394,-465.211"/>
<polygon fill="black" stroke="black" points="882.227,-461.811 871.661,-462.59 880.407,-468.57 882.227,-461.811"/>
</g>
<!-- event_tree_analysis&#45;&gt;analysis -->
<g id="edge35" class="edge"><title>event_tree_analysis&#45;&gt;analysis</title>
<path fill="none" stroke="black" d="M1158.52,-650.411C1114.8,-638.021 1052.58,-620.387 1010.15,-608.361"/>
<polygon fill="black" stroke="black" points="1010.92,-604.942 1000.34,-605.582 1009.01,-611.677 1010.92,-604.942"/>
</g>
<!-- settings&#45;&gt;error -->
<g id="edge36" class="edge"><title>settings&#45;&gt;error</title>
<path fill="none" stroke="black" d="M175.25,-503.634C181.386,-476.993 192,-424.356 192,-379 192,-379 192,-379 192,-233 192,-154.734 294.572,-115.986 353.893,-100.121"/>
<polygon fill="black" stroke="black" points="354.912,-103.473 363.726,-97.5941 353.17,-96.6933 354.912,-103.473"/>
</g>
<!-- ccf_group -->
<g id="node24" class="node"><title>ccf_group</title>
<ellipse fill="none" stroke="black" cx="1099" cy="-378" rx="57.3905" ry="18"/>
<text text-anchor="middle" x="1099" y="-374.3" font-family="Times,serif" font-size="14.00">ccf_group</text>
</g>
<!-- ccf_group&#45;&gt;expression/numerical -->
<g id="edge37" class="edge"><title>ccf_group&#45;&gt;expression/numerical</title>
<path fill="none" stroke="black" d="M1112.51,-360.411C1119.43,-351.906 1128.01,-341.372 1135.71,-331.914"/>
<polygon fill="black" stroke="black" points="1138.59,-333.921 1142.19,-323.956 1133.16,-329.501 1138.59,-333.921"/>
</g>
<!-- ccf_group&#45;&gt;event -->
<g id="edge38" class="edge"><title>ccf_group&#45;&gt;event</title>
<path fill="none" stroke="black" d="M1056.86,-365.634C1048.96,-363.648 1040.75,-361.682 1033,-360 943.456,-340.558 918.437,-347.977 830,-324 827.055,-323.201 824.032,-322.293 821.012,-321.322"/>
<polygon fill="black" stroke="black" points="822.065,-317.983 811.471,-318.06 819.801,-324.607 822.065,-317.983"/>
</g>
<!-- reporter -->
<g id="node25" class="node"><title>reporter</title>
<ellipse fill="none" stroke="black" cx="915" cy="-1026" rx="50.0912" ry="18"/>
<text text-anchor="middle" x="915" y="-1022.3" font-family="Times,serif" font-size="14.00">reporter</text>
</g>
<!-- reporter&#45;&gt;version -->
<g id="edge39" class="edge"><title>reporter&#45;&gt;version</title>
<path fill="none" stroke="black" d="M930.54,-1008.76C939.165,-999.753 950.046,-988.385 959.578,-978.426"/>
<polygon fill="black" stroke="black" points="962.159,-980.792 966.545,-971.147 957.102,-975.951 962.159,-980.792"/>
</g>
<!-- reporter&#45;&gt;xml_stream -->
<g id="edge41" class="edge"><title>reporter&#45;&gt;xml_stream</title>
<path fill="none" stroke="black" d="M964.293,-1022.79C1099.29,-1015.42 1465,-985.932 1465,-883 1465,-883 1465,-883 1465,-665 1465,-610.038 1518.67,-567.258 1557.31,-543.583"/>
<polygon fill="black" stroke="black" points="1559.46,-546.375 1566.27,-538.261 1555.89,-540.356 1559.46,-546.375"/>
</g>
<!-- risk_analysis -->
<g id="node41" class="node"><title>risk_analysis</title>
<ellipse fill="none" stroke="black" cx="848" cy="-954" rx="71.4873" ry="18"/>
<text text-anchor="middle" x="848" y="-950.3" font-family="Times,serif" font-size="14.00">risk_analysis</text>
</g>
<!-- reporter&#45;&gt;risk_analysis -->
<g id="edge40" class="edge"><title>reporter&#45;&gt;risk_analysis</title>
<path fill="none" stroke="black" d="M899.46,-1008.76C891.042,-999.969 880.474,-988.928 871.109,-979.144"/>
<polygon fill="black" stroke="black" points="873.364,-976.437 863.921,-971.633 868.307,-981.278 873.364,-976.437"/>
</g>
<!-- env -->
<g id="node26" class="node"><title>env</title>
<ellipse fill="none" stroke="black" cx="230" cy="-90" rx="27.0966" ry="18"/>
<text text-anchor="middle" x="230" y="-86.3" font-family="Times,serif" font-size="14.00">env</text>
</g>
<!-- env&#45;&gt;Boost -->
<g id="edge43" class="edge"><title>env&#45;&gt;Boost</title>
<path fill="none" stroke="black" d="M247.493,-75.8335C260.989,-65.6751 279.913,-51.431 295.44,-39.7444"/>
<polygon fill="black" stroke="black" points="297.775,-42.3673 303.66,-33.5572 293.565,-36.7746 297.775,-42.3673"/>
</g>
<!-- env&#45;&gt;STL -->
<g id="edge42" class="edge"><title>env&#45;&gt;STL</title>
<path fill="none" stroke="black" d="M232.179,-72.055C233.17,-64.3456 234.368,-55.0269 235.482,-46.3642"/>
<polygon fill="black" stroke="black" points="238.975,-46.64 236.779,-36.2753 232.032,-45.7473 238.975,-46.64"/>
</g>
<!-- model&#45;&gt;expression/test_event -->
<g id="edge49" class="edge"><title>model&#45;&gt;expression/test_event</title>
<path fill="none" stroke="black" d="M999.66,-514.665C1061.61,-503.658 1190.63,-480.736 1275.76,-465.612"/>
<polygon fill="black" stroke="black" points="1276.42,-469.048 1285.66,-463.853 1275.2,-462.156 1276.42,-469.048"/>
</g>
<!-- model&#45;&gt;expression/extern -->
<g id="edge45" class="edge"><title>model&#45;&gt;expression/extern</title>
<path fill="none" stroke="black" d="M1001.32,-516.18C1052.67,-508.718 1141.03,-492.613 1161,-468 1191.27,-430.704 1194.94,-397.557 1165,-360 1155.22,-347.734 1075.39,-331.368 1012.07,-320.084"/>
<polygon fill="black" stroke="black" points="1012.52,-316.609 1002.06,-318.318 1011.3,-323.503 1012.52,-316.609"/>
</g>
<!-- model&#45;&gt;event_tree -->
<g id="edge47" class="edge"><title>model&#45;&gt;event_tree</title>
<path fill="none" stroke="black" d="M939.056,-508.161C918.611,-497.638 889.345,-482.575 865.989,-470.553"/>
<polygon fill="black" stroke="black" points="867.528,-467.409 857.035,-465.944 864.324,-473.633 867.528,-467.409"/>
</g>
<!-- alignment -->
<g id="node29" class="node"><title>alignment</title>
<ellipse fill="none" stroke="black" cx="964" cy="-450" rx="57.6901" ry="18"/>
<text text-anchor="middle" x="964" y="-446.3" font-family="Times,serif" font-size="14.00">alignment</text>
</g>
<!-- model&#45;&gt;alignment -->
<g id="edge48" class="edge"><title>model&#45;&gt;alignment</title>
<path fill="none" stroke="black" d="M964,-503.697C964,-495.983 964,-486.712 964,-478.112"/>
<polygon fill="black" stroke="black" points="967.5,-478.104 964,-468.104 960.5,-478.104 967.5,-478.104"/>
</g>
<!-- fault_tree -->
<g id="node30" class="node"><title>fault_tree</title>
<ellipse fill="none" stroke="black" cx="1096" cy="-450" rx="55.7903" ry="18"/>
<text text-anchor="middle" x="1096" y="-446.3" font-family="Times,serif" font-size="14.00">fault_tree</text>
</g>
<!-- model&#45;&gt;fault_tree -->
<g id="edge46" class="edge"><title>model&#45;&gt;fault_tree</title>
<path fill="none" stroke="black" d="M988.519,-507.998C1008.31,-497.503 1036.47,-482.571 1059,-470.623"/>
<polygon fill="black" stroke="black" points="1060.76,-473.651 1067.95,-465.874 1057.48,-467.467 1060.76,-473.651"/>
</g>
<!-- substitution -->
<g id="node35" class="node"><title>substitution</title>
<ellipse fill="none" stroke="black" cx="815" cy="-378" rx="66.8882" ry="18"/>
<text text-anchor="middle" x="815" y="-374.3" font-family="Times,serif" font-size="14.00">substitution</text>
</g>
<!-- model&#45;&gt;substitution -->
<g id="edge44" class="edge"><title>model&#45;&gt;substitution</title>
<path fill="none" stroke="black" d="M928.296,-514.222C872.386,-503.252 769.437,-481.479 759,-468 742.449,-446.626 763.783,-420.2 784.712,-401.718"/>
<polygon fill="black" stroke="black" points="787.236,-404.168 792.633,-395.051 782.728,-398.813 787.236,-404.168"/>
</g>
<!-- alignment&#45;&gt;instruction -->
<g id="edge50" class="edge"><title>alignment&#45;&gt;instruction</title>
<path fill="none" stroke="black" d="M963.506,-431.697C963.285,-423.983 963.02,-414.712 962.775,-406.112"/>
<polygon fill="black" stroke="black" points="966.273,-406 962.489,-396.104 959.276,-406.2 966.273,-406"/>
</g>
<!-- fault_tree&#45;&gt;ccf_group -->
<g id="edge52" class="edge"><title>fault_tree&#45;&gt;ccf_group</title>
<path fill="none" stroke="black" d="M1096.74,-431.697C1097.07,-423.983 1097.47,-414.712 1097.84,-406.112"/>
<polygon fill="black" stroke="black" points="1101.34,-406.245 1098.27,-396.104 1094.34,-405.945 1101.34,-406.245"/>
</g>
<!-- parameter -->
<g id="node44" class="node"><title>parameter</title>
<ellipse fill="none" stroke="black" cx="670" cy="-378" rx="59.5901" ry="18"/>
<text text-anchor="middle" x="670" y="-374.3" font-family="Times,serif" font-size="14.00">parameter</text>
</g>
<!-- fault_tree&#45;&gt;parameter -->
<g id="edge51" class="edge"><title>fault_tree&#45;&gt;parameter</title>
<path fill="none" stroke="black" d="M1055.62,-437.55C1047.51,-435.503 1039.02,-433.536 1031,-432 902.574,-407.403 867.598,-419.682 739,-396 733.898,-395.06 728.611,-393.971 723.337,-392.806"/>
<polygon fill="black" stroke="black" points="723.792,-389.32 713.263,-390.493 722.226,-396.142 723.792,-389.32"/>
</g>
<!-- cycle -->
<g id="node31" class="node"><title>cycle</title>
<ellipse fill="none" stroke="black" cx="488" cy="-522" rx="35.194" ry="18"/>
<text text-anchor="middle" x="488" y="-518.3" font-family="Times,serif" font-size="14.00">cycle</text>
</g>
<!-- cycle&#45;&gt;event_tree -->
<g id="edge53" class="edge"><title>cycle&#45;&gt;event_tree</title>
<path fill="none" stroke="black" d="M514.383,-510.112C520.431,-507.875 526.882,-505.69 533,-504 610.878,-482.49 702.806,-467.576 763.093,-459.169"/>
<polygon fill="black" stroke="black" points="763.8,-462.605 773.23,-457.775 762.846,-455.67 763.8,-462.605"/>
</g>
<!-- cycle&#45;&gt;parameter -->
<g id="edge54" class="edge"><title>cycle&#45;&gt;parameter</title>
<path fill="none" stroke="black" d="M506.453,-506.603C538.295,-481.759 603.766,-430.677 641.5,-401.236"/>
<polygon fill="black" stroke="black" points="643.828,-403.859 649.559,-394.948 639.522,-398.34 643.828,-403.859"/>
</g>
<!-- expression/boolean -->
<g id="node33" class="node"><title>expression/boolean</title>
<ellipse fill="none" stroke="black" cx="396" cy="-306" rx="100.182" ry="18"/>
<text text-anchor="middle" x="396" y="-302.3" font-family="Times,serif" font-size="14.00">expression/boolean</text>
</g>
<!-- expression/boolean&#45;&gt;expression -->
<g id="edge55" class="edge"><title>expression/boolean&#45;&gt;expression</title>
<path fill="none" stroke="black" d="M362.326,-288.868C348.062,-280.114 332.929,-267.813 325,-252 317.828,-237.697 314.565,-228.129 325,-216 360.351,-174.91 512.845,-165.265 604.806,-163.251"/>
<polygon fill="black" stroke="black" points="604.953,-166.749 614.883,-163.056 604.817,-159.75 604.953,-166.749"/>
</g>
<!-- substitution&#45;&gt;event -->
<g id="edge56" class="edge"><title>substitution&#45;&gt;event</title>
<path fill="none" stroke="black" d="M807.496,-360.055C803.916,-351.973 799.554,-342.121 795.564,-333.112"/>
<polygon fill="black" stroke="black" points="798.685,-331.515 791.435,-323.789 792.284,-334.35 798.685,-331.515"/>
</g>
<!-- pdag&#45;&gt;logger -->
<g id="edge57" class="edge"><title>pdag&#45;&gt;logger</title>
<path fill="none" stroke="black" d="M846.663,-575.696C846.505,-556.233 843.424,-524.65 827,-504 803.485,-474.433 784.119,-484.219 750,-468 683.574,-436.424 644.453,-455.34 601,-396 553.245,-330.785 630.572,-274.696 575,-216 546.264,-185.648 428.861,-171.839 360.682,-166.271"/>
<polygon fill="black" stroke="black" points="360.834,-162.772 350.59,-165.477 360.285,-169.751 360.834,-162.772"/>
</g>
<!-- pdag&#45;&gt;model -->
<g id="edge58" class="edge"><title>pdag&#45;&gt;model</title>
<path fill="none" stroke="black" d="M867.643,-580.161C885.726,-569.434 911.762,-553.989 932.212,-541.857"/>
<polygon fill="black" stroke="black" points="934.066,-544.827 940.881,-536.715 930.494,-538.807 934.066,-544.827"/>
</g>
<!-- expression/constant&#45;&gt;expression -->
<g id="edge59" class="edge"><title>expression/constant&#45;&gt;expression</title>
<path fill="none" stroke="black" d="M1020.01,-220.887C940.39,-207.489 813.414,-186.122 738.027,-173.437"/>
<polygon fill="black" stroke="black" points="738.184,-169.915 727.742,-171.707 737.023,-176.818 738.184,-169.915"/>
</g>
<!-- config -->
<g id="node38" class="node"><title>config</title>
<ellipse fill="none" stroke="black" cx="124" cy="-594" rx="38.9931" ry="18"/>
<text text-anchor="middle" x="124" y="-590.3" font-family="Times,serif" font-size="14.00">config</text>
</g>
<!-- config&#45;&gt;xml -->
<g id="edge62" class="edge"><title>config&#45;&gt;xml</title>
<path fill="none" stroke="black" d="M112.862,-576.411C107.042,-567.744 99.8092,-556.971 93.3664,-547.375"/>
<polygon fill="black" stroke="black" points="96.215,-545.339 87.7349,-538.988 90.4035,-549.241 96.215,-545.339"/>
</g>
<!-- config&#45;&gt;settings -->
<g id="edge61" class="edge"><title>config&#45;&gt;settings</title>
<path fill="none" stroke="black" d="M135.138,-576.411C140.734,-568.077 147.636,-557.797 153.886,-548.488"/>
<polygon fill="black" stroke="black" points="156.947,-550.209 159.615,-539.956 151.135,-546.307 156.947,-550.209"/>
</g>
<!-- config&#45;&gt;env -->
<g id="edge60" class="edge"><title>config&#45;&gt;env</title>
<path fill="none" stroke="black" d="M96.8577,-581.05C78.7943,-571.963 55.6039,-557.966 40,-540 11.5627,-507.258 0,-494.367 0,-451 0,-451 0,-451 0,-233 0,-143.205 128.497,-108.312 193.401,-96.4144"/>
<polygon fill="black" stroke="black" points="194.365,-99.7993 203.616,-94.6357 193.164,-92.9031 194.365,-99.7993"/>
</g>
<!-- initializer -->
<g id="node39" class="node"><title>initializer</title>
<ellipse fill="none" stroke="black" cx="425" cy="-594" rx="55.4913" ry="18"/>
<text text-anchor="middle" x="425" y="-590.3" font-family="Times,serif" font-size="14.00">initializer</text>
</g>
<!-- initializer&#45;&gt;logger -->
<g id="edge72" class="edge"><title>initializer&#45;&gt;logger</title>
<path fill="none" stroke="black" d="M412.708,-576.202C383.778,-535.498 311.955,-427.318 287,-324 275.744,-277.399 289.945,-221.862 300.806,-189.694"/>
<polygon fill="black" stroke="black" points="304.16,-190.707 304.179,-180.113 297.557,-188.383 304.16,-190.707"/>
</g>
<!-- initializer&#45;&gt;expression/conditional -->
<g id="edge64" class="edge"><title>initializer&#45;&gt;expression/conditional</title>
<path fill="none" stroke="black" d="M428.057,-575.795C431.404,-557.763 437.209,-528.678 444,-504 466.411,-422.558 491.262,-407.344 505,-324 507.602,-308.213 511.26,-302.725 505,-288 500.136,-276.559 491.459,-266.39 482.413,-258.095"/>
<polygon fill="black" stroke="black" points="484.677,-255.426 474.804,-251.582 480.125,-260.744 484.677,-255.426"/>
</g>
<!-- initializer&#45;&gt;expression/exponential -->
<g id="edge65" class="edge"><title>initializer&#45;&gt;expression/exponential</title>
<path fill="none" stroke="black" d="M478.478,-589.137C630.818,-578.132 1069.55,-546.438 1279.45,-531.275"/>
<polygon fill="black" stroke="black" points="1279.86,-534.755 1289.58,-530.543 1279.35,-527.773 1279.86,-534.755"/>
</g>
<!-- initializer&#45;&gt;xml -->
<g id="edge66" class="edge"><title>initializer&#45;&gt;xml</title>
<path fill="none" stroke="black" d="M372.577,-588.296C309.962,-581.717 202.567,-567.372 114,-540 111.86,-539.339 109.683,-538.58 107.51,-537.76"/>
<polygon fill="black" stroke="black" points="108.725,-534.474 98.1477,-533.866 106.037,-540.938 108.725,-534.474"/>
</g>
<!-- initializer&#45;&gt;settings -->
<g id="edge67" class="edge"><title>initializer&#45;&gt;settings</title>
<path fill="none" stroke="black" d="M384.191,-581.753C339.022,-569.305 266.314,-549.268 218.591,-536.116"/>
<polygon fill="black" stroke="black" points="219.376,-532.702 208.806,-533.419 217.516,-539.45 219.376,-532.702"/>
</g>
<!-- initializer&#45;&gt;env -->
<g id="edge68" class="edge"><title>initializer&#45;&gt;env</title>
<path fill="none" stroke="black" d="M402.844,-577.298C390.139,-567.552 374.486,-554.205 363,-540 340.117,-511.701 339.686,-500.839 324,-468 309.058,-436.719 304.272,-429.11 294,-396 262.88,-295.685 242.155,-172.126 233.955,-118.258"/>
<polygon fill="black" stroke="black" points="237.383,-117.518 232.439,-108.148 230.461,-118.556 237.383,-117.518"/>
</g>
<!-- initializer&#45;&gt;model -->
<g id="edge70" class="edge"><title>initializer&#45;&gt;model</title>
<path fill="none" stroke="black" d="M475.224,-586.477C578.964,-573.005 815.642,-542.267 916.768,-529.134"/>
<polygon fill="black" stroke="black" points="917.517,-532.566 926.983,-527.807 916.616,-525.625 917.517,-532.566"/>
</g>
<!-- initializer&#45;&gt;cycle -->
<g id="edge69" class="edge"><title>initializer&#45;&gt;cycle</title>
<path fill="none" stroke="black" d="M439.93,-576.411C447.969,-567.479 458.021,-556.31 466.852,-546.498"/>
<polygon fill="black" stroke="black" points="469.523,-548.762 473.611,-538.988 464.319,-544.08 469.523,-548.762"/>
</g>
<!-- initializer&#45;&gt;expression/boolean -->
<g id="edge63" class="edge"><title>initializer&#45;&gt;expression/boolean</title>
<path fill="none" stroke="black" d="M419.608,-575.996C416.566,-565.688 412.987,-552.212 411,-540 398.999,-466.233 396.504,-377.863 396.047,-334.188"/>
<polygon fill="black" stroke="black" points="399.547,-334.056 395.971,-324.083 392.547,-334.11 399.547,-334.056"/>
</g>
<!-- expression/random_deviate -->
<g id="node40" class="node"><title>expression/random_deviate</title>
<ellipse fill="none" stroke="black" cx="680" cy="-522" rx="138.375" ry="18"/>
<text text-anchor="middle" x="680" y="-518.3" font-family="Times,serif" font-size="14.00">expression/random_deviate</text>
</g>
<!-- initializer&#45;&gt;expression/random_deviate -->
<g id="edge71" class="edge"><title>initializer&#45;&gt;expression/random_deviate</title>
<path fill="none" stroke="black" d="M465.97,-581.753C505.796,-570.821 566.948,-554.034 613.703,-541.199"/>
<polygon fill="black" stroke="black" points="614.733,-544.546 623.449,-538.524 612.879,-537.796 614.733,-544.546"/>
</g>
<!-- expression/random_deviate&#45;&gt;expression -->
<g id="edge73" class="edge"><title>expression/random_deviate&#45;&gt;expression</title>
<path fill="none" stroke="black" d="M656.282,-503.927C628.719,-482.416 584.863,-442.576 568,-396 539.423,-317.068 611.301,-228.206 651.327,-186.717"/>
<polygon fill="black" stroke="black" points="653.877,-189.115 658.399,-179.534 648.889,-184.204 653.877,-189.115"/>
</g>
<!-- risk_analysis&#45;&gt;importance_analysis -->
<g id="edge76" class="edge"><title>risk_analysis&#45;&gt;importance_analysis</title>
<path fill="none" stroke="black" d="M891.91,-939.751C928.318,-928.766 980.423,-913.045 1020.56,-900.934"/>
<polygon fill="black" stroke="black" points="1021.67,-904.256 1030.23,-898.016 1019.65,-897.554 1021.67,-904.256"/>
</g>
<!-- risk_analysis&#45;&gt;event_tree_analysis -->
<g id="edge78" class="edge"><title>risk_analysis&#45;&gt;event_tree_analysis</title>
<path fill="none" stroke="black" d="M899.53,-941.449C908.976,-939.503 918.766,-937.599 928,-936 987.209,-925.747 1155.1,-944.023 1196,-900 1248.55,-843.437 1230.64,-742.014 1218.03,-693.831"/>
<polygon fill="black" stroke="black" points="1221.39,-692.844 1215.38,-684.123 1214.64,-694.693 1221.39,-692.844"/>
</g>
<!-- risk_analysis&#45;&gt;expression/random_deviate -->
<g id="edge74" class="edge"><title>risk_analysis&#45;&gt;expression/random_deviate</title>
<path fill="none" stroke="black" d="M797.969,-940.973C772.528,-932.821 742.523,-919.833 721,-900 688.256,-869.827 675,-855.527 675,-811 675,-811 675,-811 675,-665 675,-624.971 677.009,-578.635 678.48,-550.07"/>
<polygon fill="black" stroke="black" points="681.977,-550.214 679.012,-540.042 674.987,-549.843 681.977,-550.214"/>
</g>
<!-- uncertainty_analysis -->
<g id="node43" class="node"><title>uncertainty_analysis</title>
<ellipse fill="none" stroke="black" cx="848" cy="-882" rx="107.482" ry="18"/>
<text text-anchor="middle" x="848" y="-878.3" font-family="Times,serif" font-size="14.00">uncertainty_analysis</text>
</g>
<!-- risk_analysis&#45;&gt;uncertainty_analysis -->
<g id="edge77" class="edge"><title>risk_analysis&#45;&gt;uncertainty_analysis</title>
<path fill="none" stroke="black" d="M848,-935.697C848,-927.983 848,-918.712 848,-910.112"/>
<polygon fill="black" stroke="black" points="851.5,-910.104 848,-900.104 844.5,-910.104 851.5,-910.104"/>
</g>
<!-- mocus -->
<g id="node45" class="node"><title>mocus</title>
<ellipse fill="none" stroke="black" cx="744" cy="-810" rx="40.8928" ry="18"/>
<text text-anchor="middle" x="744" y="-806.3" font-family="Times,serif" font-size="14.00">mocus</text>
</g>
<!-- risk_analysis&#45;&gt;mocus -->
<g id="edge75" class="edge"><title>risk_analysis&#45;&gt;mocus</title>
<path fill="none" stroke="black" d="M794.023,-942.072C770.787,-934.404 745.824,-921.515 732,-900 720.069,-881.432 725.002,-856.185 731.797,-837.324"/>
<polygon fill="black" stroke="black" points="735.122,-838.435 735.554,-827.849 728.614,-835.855 735.122,-838.435"/>
</g>
<!-- analysis&#45;&gt;settings -->
<g id="edge79" class="edge"><title>analysis&#45;&gt;settings</title>
<path fill="none" stroke="black" d="M924.805,-583.059C913.36,-580.397 900.731,-577.77 889,-576 824.412,-566.255 386.579,-537.087 228.107,-526.713"/>
<polygon fill="black" stroke="black" points="228.287,-523.217 218.08,-526.057 227.83,-530.202 228.287,-523.217"/>
</g>
<!-- uncertainty_analysis&#45;&gt;probability_analysis -->
<g id="edge80" class="edge"><title>uncertainty_analysis&#45;&gt;probability_analysis</title>
<path fill="none" stroke="black" d="M862.282,-864.055C869.351,-855.668 878.026,-845.376 885.847,-836.096"/>
<polygon fill="black" stroke="black" points="888.671,-838.177 892.439,-828.275 883.318,-833.666 888.671,-838.177"/>
</g>
<!-- parameter&#45;&gt;element -->
<g id="edge81" class="edge"><title>parameter&#45;&gt;element</title>
<path fill="none" stroke="black" d="M682.752,-360.094C696.437,-342.061 718.919,-312.746 739,-288 746.687,-278.528 755.318,-268.274 762.949,-259.333"/>
<polygon fill="black" stroke="black" points="765.77,-261.42 769.621,-251.55 760.455,-256.864 765.77,-261.42"/>
</g>
<!-- parameter&#45;&gt;expression -->
<g id="edge82" class="edge"><title>parameter&#45;&gt;expression</title>
<path fill="none" stroke="black" d="M670.481,-359.849C671.519,-322.832 673.976,-235.181 675.232,-190.386"/>
<polygon fill="black" stroke="black" points="678.735,-190.327 675.517,-180.232 671.738,-190.13 678.735,-190.327"/>
</g>
<!-- mocus&#45;&gt;zbdd -->
<g id="edge83" class="edge"><title>mocus&#45;&gt;zbdd</title>
<path fill="none" stroke="black" d="M743.518,-791.871C742.836,-767.67 741.583,-723.211 740.772,-694.393"/>
<polygon fill="black" stroke="black" points="744.264,-694.087 740.484,-684.189 737.267,-694.284 744.264,-694.087"/>
</g>
<!-- preprocessor&#45;&gt;pdag -->
<g id="edge84" class="edge"><title>preprocessor&#45;&gt;pdag</title>
<path fill="none" stroke="black" d="M858.798,-647.697C856.904,-639.898 854.623,-630.509 852.516,-621.829"/>
<polygon fill="black" stroke="black" points="855.915,-620.996 850.154,-612.104 849.113,-622.648 855.915,-620.996"/>
</g>
<!-- zbdd&#45;&gt;bdd -->
<g id="edge86" class="edge"><title>zbdd&#45;&gt;bdd</title>
<path fill="none" stroke="black" d="M717.418,-679.183C690.341,-691.889 645.063,-711.705 613.837,-724.52"/>
<polygon fill="black" stroke="black" points="612.184,-721.413 604.233,-728.417 614.816,-727.9 612.184,-721.413"/>
</g>
<!-- zbdd&#45;&gt;pdag -->
<g id="edge85" class="edge"><title>zbdd&#45;&gt;pdag</title>
<path fill="none" stroke="black" d="M760.438,-651.503C776.569,-640.851 799.269,-625.86 817.235,-613.996"/>
<polygon fill="black" stroke="black" points="819.209,-616.887 825.625,-608.455 815.351,-611.045 819.209,-616.887"/>
</g>
<!-- scram -->
<g id="node48" class="node"><title>scram</title>
<ellipse fill="none" stroke="black" cx="776" cy="-1098" rx="39.7935" ry="18"/>
<text text-anchor="middle" x="776" y="-1094.3" font-family="Times,serif" font-size="14.00">scram</text>
</g>
<!-- scram&#45;&gt;serialization -->
<g id="edge89" class="edge"><title>scram&#45;&gt;serialization</title>
<path fill="none" stroke="black" d="M814.573,-1093.61C964.871,-1079.89 1503,-1025.81 1503,-955 1503,-955 1503,-955 1503,-737 1503,-681.222 1447.63,-638.479 1408.08,-615.061"/>
<polygon fill="black" stroke="black" points="1409.82,-612.025 1399.41,-610.082 1406.34,-618.096 1409.82,-612.025"/>
</g>
<!-- scram&#45;&gt;reporter -->
<g id="edge88" class="edge"><title>scram&#45;&gt;reporter</title>
<path fill="none" stroke="black" d="M801.495,-1084.16C822.805,-1073.43 853.493,-1057.97 877.589,-1045.84"/>
<polygon fill="black" stroke="black" points="879.441,-1048.83 886.798,-1041.2 876.292,-1042.57 879.441,-1048.83"/>
</g>
<!-- scram&#45;&gt;config -->
<g id="edge87" class="edge"><title>scram&#45;&gt;config</title>
<path fill="none" stroke="black" d="M736.341,-1095.55C607.962,-1089.8 212,-1063.29 212,-955 212,-955 212,-955 212,-737 212,-688.957 175.155,-643.634 149.147,-617.625"/>
<polygon fill="black" stroke="black" points="151.422,-614.956 141.808,-610.504 146.548,-619.98 151.422,-614.956"/>
</g>
<!-- scram&#45;&gt;initializer -->
<g id="edge90" class="edge"><title>scram&#45;&gt;initializer</title>
<path fill="none" stroke="black" d="M749.199,-1084.68C708.808,-1064.06 637,-1018.48 637,-955 637,-955 637,-955 637,-737 637,-661.626 543.35,-623.717 480.537,-606.768"/>
<polygon fill="black" stroke="black" points="481.298,-603.35 470.74,-604.225 479.54,-610.125 481.298,-603.35"/>
</g>
</g>
</svg>
